<svg width="48" height="48" viewBox="0 0 48 48" fill="none" xmlns="http://www.w3.org/2000/svg">
<rect width="48" height="48" rx="12" fill="#F0FDF4"/>
<path d="M31.5 15H29.25V14.25C29.25 14.0511 29.171 13.8603 29.0303 13.7197C28.8897 13.579 28.6989 13.5 28.5 13.5C28.3011 13.5 28.1103 13.579 27.9697 13.7197C27.829 13.8603 27.75 14.0511 27.75 14.25V15H20.25V14.25C20.25 14.0511 20.171 13.8603 20.0303 13.7197C19.8897 13.579 19.6989 13.5 19.5 13.5C19.3011 13.5 19.1103 13.579 18.9697 13.7197C18.829 13.8603 18.75 14.0511 18.75 14.25V15H16.5C16.1022 15 15.7206 15.158 15.4393 15.4393C15.158 15.7206 15 16.1022 15 16.5V31.5C15 31.8978 15.158 32.2794 15.4393 32.5607C15.7206 32.842 16.1022 33 16.5 33H31.5C31.8978 33 32.2794 32.842 32.5607 32.5607C32.842 32.2794 33 31.8978 33 31.5V16.5C33 16.1022 32.842 15.7206 32.5607 15.4393C32.2794 15.158 31.8978 15 31.5 15ZM19.875 29.25C19.6525 29.25 19.435 29.184 19.25 29.0604C19.065 28.9368 18.9208 28.7611 18.8356 28.5555C18.7505 28.35 18.7282 28.1238 18.7716 27.9055C18.815 27.6873 18.9222 27.4868 19.0795 27.3295C19.2368 27.1722 19.4373 27.065 19.6555 27.0216C19.8738 26.9782 20.1 27.0005 20.3055 27.0856C20.5111 27.1708 20.6868 27.315 20.8104 27.5C20.934 27.685 21 27.9025 21 28.125C21 28.4234 20.8815 28.7095 20.6705 28.9205C20.4595 29.1315 20.1734 29.25 19.875 29.25ZM24 29.25C23.7775 29.25 23.56 29.184 23.375 29.0604C23.19 28.9368 23.0458 28.7611 22.9606 28.5555C22.8755 28.35 22.8532 28.1238 22.8966 27.9055C22.94 27.6873 23.0472 27.4868 23.2045 27.3295C23.3618 27.1722 23.5623 27.065 23.7805 27.0216C23.9988 26.9782 24.225 27.0005 24.4305 27.0856C24.6361 27.1708 24.8118 27.315 24.9354 27.5C25.059 27.685 25.125 27.9025 25.125 28.125C25.125 28.4234 25.0065 28.7095 24.7955 28.9205C24.5845 29.1315 24.2984 29.25 24 29.25ZM24 25.5C23.7775 25.5 23.56 25.434 23.375 25.3104C23.19 25.1868 23.0458 25.0111 22.9606 24.8055C22.8755 24.6 22.8532 24.3738 22.8966 24.1555C22.94 23.9373 23.0472 23.7368 23.2045 23.5795C23.3618 23.4222 23.5623 23.315 23.7805 23.2716C23.9988 23.2282 24.225 23.2505 24.4305 23.3356C24.6361 23.4208 24.8118 23.565 24.9354 23.75C25.059 23.935 25.125 24.1525 25.125 24.375C25.125 24.6734 25.0065 24.9595 24.7955 25.1705C24.5845 25.3815 24.2984 25.5 24 25.5ZM28.125 29.25C27.9025 29.25 27.685 29.184 27.5 29.0604C27.315 28.9368 27.1708 28.7611 27.0856 28.5555C27.0005 28.35 26.9782 28.1238 27.0216 27.9055C27.065 27.6873 27.1722 27.4868 27.3295 27.3295C27.4868 27.1722 27.6873 27.065 27.9055 27.0216C28.1238 26.9782 28.35 27.0005 28.5555 27.0856C28.7611 27.1708 28.9368 27.315 29.0604 27.5C29.184 27.685 29.25 27.9025 29.25 28.125C29.25 28.4234 29.1315 28.7095 28.9205 28.9205C28.7095 29.1315 28.4234 29.25 28.125 29.25ZM28.125 25.5C27.9025 25.5 27.685 25.434 27.5 25.3104C27.315 25.1868 27.1708 25.0111 27.0856 24.8055C27.0005 24.6 26.9782 24.3738 27.0216 24.1555C27.065 23.9373 27.1722 23.7368 27.3295 23.5795C27.4868 23.4222 27.6873 23.315 27.9055 23.2716C28.1238 23.2282 28.35 23.2505 28.5555 23.3356C28.7611 23.4208 28.9368 23.565 29.0604 23.75C29.184 23.935 29.25 24.1525 29.25 24.375C29.25 24.6734 29.1315 24.9595 28.9205 25.1705C28.7095 25.3815 28.4234 25.5 28.125 25.5ZM31.5 19.5H16.5V16.5H18.75V17.25C18.75 17.4489 18.829 17.6397 18.9697 17.7803C19.1103 17.921 19.3011 18 19.5 18C19.6989 18 19.8897 17.921 20.0303 17.7803C20.171 17.6397 20.25 17.4489 20.25 17.25V16.5H27.75V17.25C27.75 17.4489 27.829 17.6397 27.9697 17.7803C28.1103 17.921 28.3011 18 28.5 18C28.6989 18 28.8897 17.921 29.0303 17.7803C29.171 17.6397 29.25 17.4489 29.25 17.25V16.5H31.5V19.5Z" fill="#166534"/>
</svg>
