<svg width="48" height="48" viewBox="0 0 48 48" fill="none" xmlns="http://www.w3.org/2000/svg">
<rect width="48" height="48" rx="12" fill="#F0FDF4"/>
<path d="M22.5 23.25C22.5 23.5467 22.412 23.8367 22.2472 24.0834C22.0824 24.33 21.8481 24.5223 21.574 24.6358C21.2999 24.7494 20.9983 24.7791 20.7074 24.7212C20.4164 24.6633 20.1491 24.5204 19.9393 24.3107C19.7296 24.1009 19.5867 23.8336 19.5288 23.5426C19.4709 23.2517 19.5006 22.9501 19.6142 22.676C19.7277 22.4019 19.92 22.1676 20.1666 22.0028C20.4133 21.838 20.7033 21.75 21 21.75C21.3978 21.75 21.7794 21.908 22.0607 22.1893C22.342 22.4706 22.5 22.8522 22.5 23.25ZM33.75 17.25V30.75C33.75 31.1478 33.592 31.5294 33.3107 31.8107C33.0294 32.092 32.6478 32.25 32.25 32.25H15.75C15.3522 32.25 14.9706 32.092 14.6893 31.8107C14.408 31.5294 14.25 31.1478 14.25 30.75V17.25C14.25 16.8522 14.408 16.4706 14.6893 16.1893C14.9706 15.908 15.3522 15.75 15.75 15.75H32.25C32.6478 15.75 33.0294 15.908 33.3107 16.1893C33.592 16.4706 33.75 16.8522 33.75 17.25ZM24.7266 27.5625C24.4839 26.6563 23.9084 25.875 23.115 25.3744C23.5363 24.9555 23.8238 24.421 23.941 23.8386C24.0582 23.2562 23.9999 22.652 23.7733 22.1028C23.5468 21.5536 23.1623 21.084 22.6686 20.7536C22.1748 20.4232 21.5941 20.2468 21 20.2468C20.4059 20.2468 19.8252 20.4232 19.3314 20.7536C18.8377 21.084 18.4532 21.5536 18.2267 22.1028C18.0001 22.652 17.9418 23.2562 18.059 23.8386C18.1762 24.421 18.4637 24.9555 18.885 25.3744C18.0921 25.8755 17.5168 26.6566 17.2734 27.5625C17.2237 27.7552 17.2526 27.9598 17.3537 28.1312C17.4548 28.3026 17.6198 28.4268 17.8125 28.4766C18.0052 28.5263 18.2098 28.4974 18.3812 28.3963C18.5526 28.2952 18.6768 28.1302 18.7266 27.9375C18.9741 26.9766 19.9509 26.25 21 26.25C22.0491 26.25 23.0269 26.9747 23.2734 27.9375C23.3232 28.1302 23.4474 28.2952 23.6188 28.3963C23.7902 28.4974 23.9948 28.5263 24.1875 28.4766C24.3802 28.4268 24.5452 28.3026 24.6463 28.1312C24.7474 27.9598 24.7763 27.7552 24.7266 27.5625ZM30.75 25.5C30.75 25.3011 30.671 25.1103 30.5303 24.9697C30.3897 24.829 30.1989 24.75 30 24.75H26.25C26.0511 24.75 25.8603 24.829 25.7197 24.9697C25.579 25.1103 25.5 25.3011 25.5 25.5C25.5 25.6989 25.579 25.8897 25.7197 26.0303C25.8603 26.171 26.0511 26.25 26.25 26.25H30C30.1989 26.25 30.3897 26.171 30.5303 26.0303C30.671 25.8897 30.75 25.6989 30.75 25.5ZM30.75 22.5C30.75 22.3011 30.671 22.1103 30.5303 21.9697C30.3897 21.829 30.1989 21.75 30 21.75H26.25C26.0511 21.75 25.8603 21.829 25.7197 21.9697C25.579 22.1103 25.5 22.3011 25.5 22.5C25.5 22.6989 25.579 22.8897 25.7197 23.0303C25.8603 23.171 26.0511 23.25 26.25 23.25H30C30.1989 23.25 30.3897 23.171 30.5303 23.0303C30.671 22.8897 30.75 22.6989 30.75 22.5Z" fill="#166534"/>
</svg>
