<svg width="48" height="48" viewBox="0 0 48 48" fill="none" xmlns="http://www.w3.org/2000/svg">
<rect width="48" height="48" rx="12" fill="#F0FDF4"/>
<path d="M31.5 15H29.25V14.25C29.25 14.0511 29.171 13.8603 29.0303 13.7197C28.8897 13.579 28.6989 13.5 28.5 13.5C28.3011 13.5 28.1103 13.579 27.9697 13.7197C27.829 13.8603 27.75 14.0511 27.75 14.25V15H24.75V14.25C24.75 14.0511 24.671 13.8603 24.5303 13.7197C24.3897 13.579 24.1989 13.5 24 13.5C23.8011 13.5 23.6103 13.579 23.4697 13.7197C23.329 13.8603 23.25 14.0511 23.25 14.25V15H20.25V14.25C20.25 14.0511 20.171 13.8603 20.0303 13.7197C19.8897 13.579 19.6989 13.5 19.5 13.5C19.3011 13.5 19.1103 13.579 18.9697 13.7197C18.829 13.8603 18.75 14.0511 18.75 14.25V15H16.5C16.3011 15 16.1103 15.079 15.9697 15.2197C15.829 15.3603 15.75 15.5511 15.75 15.75V30.75C15.75 31.5456 16.0661 32.3087 16.6287 32.8713C17.1913 33.4339 17.9544 33.75 18.75 33.75H29.25C30.0456 33.75 30.8087 33.4339 31.3713 32.8713C31.9339 32.3087 32.25 31.5456 32.25 30.75V15.75C32.25 15.5511 32.171 15.3603 32.0303 15.2197C31.8897 15.079 31.6989 15 31.5 15ZM23.25 17.25C23.25 17.0511 23.329 16.8603 23.4697 16.7197C23.6103 16.579 23.8011 16.5 24 16.5C24.1989 16.5 24.3897 16.579 24.5303 16.7197C24.671 16.8603 24.75 17.0511 24.75 17.25V18C24.75 18.1989 24.671 18.3897 24.5303 18.5303C24.3897 18.671 24.1989 18.75 24 18.75C23.8011 18.75 23.6103 18.671 23.4697 18.5303C23.329 18.3897 23.25 18.1989 23.25 18V17.25ZM19.5 18.75C19.3011 18.75 19.1103 18.671 18.9697 18.5303C18.829 18.3897 18.75 18.1989 18.75 18V17.25C18.75 17.0511 18.829 16.8603 18.9697 16.7197C19.1103 16.579 19.3011 16.5 19.5 16.5C19.6989 16.5 19.8897 16.579 20.0303 16.7197C20.171 16.8603 20.25 17.0511 20.25 17.25V18C20.25 18.1989 20.171 18.3897 20.0303 18.5303C19.8897 18.671 19.6989 18.75 19.5 18.75ZM27 27.75H21C20.8011 27.75 20.6103 27.671 20.4697 27.5303C20.329 27.3897 20.25 27.1989 20.25 27C20.25 26.8011 20.329 26.6103 20.4697 26.4697C20.6103 26.329 20.8011 26.25 21 26.25H27C27.1989 26.25 27.3897 26.329 27.5303 26.4697C27.671 26.6103 27.75 26.8011 27.75 27C27.75 27.1989 27.671 27.3897 27.5303 27.5303C27.3897 27.671 27.1989 27.75 27 27.75ZM27 24.75H21C20.8011 24.75 20.6103 24.671 20.4697 24.5303C20.329 24.3897 20.25 24.1989 20.25 24C20.25 23.8011 20.329 23.6103 20.4697 23.4697C20.6103 23.329 20.8011 23.25 21 23.25H27C27.1989 23.25 27.3897 23.329 27.5303 23.4697C27.671 23.6103 27.75 23.8011 27.75 24C27.75 24.1989 27.671 24.3897 27.5303 24.5303C27.3897 24.671 27.1989 24.75 27 24.75ZM29.25 18C29.25 18.1989 29.171 18.3897 29.0303 18.5303C28.8897 18.671 28.6989 18.75 28.5 18.75C28.3011 18.75 28.1103 18.671 27.9697 18.5303C27.829 18.3897 27.75 18.1989 27.75 18V17.25C27.75 17.0511 27.829 16.8603 27.9697 16.7197C28.1103 16.579 28.3011 16.5 28.5 16.5C28.6989 16.5 28.8897 16.579 29.0303 16.7197C29.171 16.8603 29.25 17.0511 29.25 17.25V18Z" fill="#166534"/>
</svg>
