<svg width="48" height="48" viewBox="0 0 48 48" fill="none" xmlns="http://www.w3.org/2000/svg">
<rect width="48" height="48" rx="12" fill="#F0FDF4"/>
<path d="M34.5 31.5H33V24.75L33.2194 24.9694C33.3604 25.1101 33.5515 25.1891 33.7507 25.1889C33.9499 25.1887 34.1408 25.1094 34.2816 24.9684C34.4223 24.8275 34.5013 24.6363 34.5011 24.4371C34.5009 24.2379 34.4216 24.047 34.2806 23.9062L25.0603 14.6887C24.779 14.4077 24.3977 14.2498 24 14.2498C23.6023 14.2498 23.221 14.4077 22.9397 14.6887L13.7194 23.9062C13.5788 24.047 13.4998 24.2378 13.4999 24.4367C13.5 24.6357 13.5791 24.8264 13.7198 24.967C13.8606 25.1076 14.0514 25.1866 14.2503 25.1865C14.4493 25.1864 14.64 25.1073 14.7806 24.9666L15 24.75V31.5H13.5C13.3011 31.5 13.1103 31.579 12.9697 31.7197C12.829 31.8603 12.75 32.0511 12.75 32.25C12.75 32.4489 12.829 32.6397 12.9697 32.7803C13.1103 32.921 13.3011 33 13.5 33H34.5C34.6989 33 34.8897 32.921 35.0303 32.7803C35.171 32.6397 35.25 32.4489 35.25 32.25C35.25 32.0511 35.171 31.8603 35.0303 31.7197C34.8897 31.579 34.6989 31.5 34.5 31.5ZM26.25 31.5H21.75V27C21.75 26.9005 21.7895 26.8052 21.8598 26.7348C21.9302 26.6645 22.0255 26.625 22.125 26.625H25.875C25.9745 26.625 26.0698 26.6645 26.1402 26.7348C26.2105 26.8052 26.25 26.9005 26.25 27V31.5Z" fill="#166534"/>
</svg>
