<svg width="24" height="25" viewBox="0 0 24 25" fill="none" xmlns="http://www.w3.org/2000/svg">
<path d="M12.02 3.91C8.71003 3.91 6.02003 6.6 6.02003 9.91V12.8C6.02003 13.41 5.76003 14.34 5.45003 14.86L4.30003 16.77C3.59003 17.95 4.08003 19.26 5.38003 19.7C9.69003 21.14 14.34 21.14 18.65 19.7C19.86 19.3 20.39 17.87 19.73 16.77L18.58 14.86C18.28 14.34 18.02 13.41 18.02 12.8V9.91C18.02 6.61 15.32 3.91 12.02 3.91Z" stroke="#212121" stroke-width="1.5" stroke-miterlimit="10" stroke-linecap="round"/>
<path d="M13.87 4.2C13.56 4.11 13.24 4.04 12.91 4C11.95 3.88 11.03 3.95 10.17 4.2C10.46 3.46 11.18 2.94 12.02 2.94C12.86 2.94 13.58 3.46 13.87 4.2Z" stroke="#212121" stroke-width="1.5" stroke-miterlimit="10" stroke-linecap="round" stroke-linejoin="round"/>
<path d="M15.02 20.06C15.02 21.71 13.67 23.06 12.02 23.06C11.2 23.06 10.44 22.72 9.90002 22.18C9.36002 21.64 9.02002 20.88 9.02002 20.06" stroke="#212121" stroke-width="1.5" stroke-miterlimit="10"/>
<circle cx="15" cy="4" r="4" fill="#FF0000"/>
</svg>
