<svg width="48" height="48" viewBox="0 0 48 48" fill="none" xmlns="http://www.w3.org/2000/svg">
<rect width="48" height="48" rx="24" fill="#047857"/>
<path d="M32.0306 19.7194L26.7806 14.4694C26.7109 14.3997 26.6282 14.3445 26.5371 14.3069C26.4461 14.2693 26.3485 14.2499 26.25 14.25H17.25C16.8522 14.25 16.4706 14.408 16.1893 14.6893C15.908 14.9706 15.75 15.3522 15.75 15.75V32.25C15.75 32.6478 15.908 33.0294 16.1893 33.3107C16.4706 33.592 16.8522 33.75 17.25 33.75H30.75C31.1478 33.75 31.5294 33.592 31.8107 33.3107C32.092 33.0294 32.25 32.6478 32.25 32.25V20.25C32.2501 20.1515 32.2307 20.0539 32.1931 19.9629C32.1555 19.8718 32.1003 19.7891 32.0306 19.7194ZM27 16.8103L29.6897 19.5H27V16.8103ZM30.75 32.25H17.25V15.75H25.5V20.25C25.5 20.4489 25.579 20.6397 25.7197 20.7803C25.8603 20.921 26.0511 21 26.25 21H30.75V32.25Z" fill="white"/>
</svg>
