<svg width="56" height="56" viewBox="0 0 56 56" fill="none" xmlns="http://www.w3.org/2000/svg">
<path d="M52.5 45.5H50.75V15.75C50.75 15.2859 50.5656 14.8408 50.2374 14.5126C49.9092 14.1844 49.4641 14 49 14H40.25V8.75C40.25 8.28587 40.0656 7.84075 39.7374 7.51256C39.4092 7.18437 38.9641 7 38.5 7H17.5C17.0359 7 16.5908 7.18437 16.2626 7.51256C15.9344 7.84075 15.75 8.28587 15.75 8.75V21H7C6.53587 21 6.09075 21.1844 5.76256 21.5126C5.43437 21.8408 5.25 22.2859 5.25 22.75V45.5H3.5C3.03587 45.5 2.59075 45.6844 2.26256 46.0126C1.93437 46.3408 1.75 46.7859 1.75 47.25C1.75 47.7141 1.93437 48.1592 2.26256 48.4874C2.59075 48.8156 3.03587 49 3.5 49H52.5C52.9641 49 53.4092 48.8156 53.7374 48.4874C54.0656 48.1592 54.25 47.7141 54.25 47.25C54.25 46.7859 54.0656 46.3408 53.7374 46.0126C53.4092 45.6844 52.9641 45.5 52.5 45.5ZM17.5 38.5H14C13.5359 38.5 13.0908 38.3156 12.7626 37.9874C12.4344 37.6593 12.25 37.2141 12.25 36.75C12.25 36.2859 12.4344 35.8407 12.7626 35.5126C13.0908 35.1844 13.5359 35 14 35H17.5C17.9641 35 18.4092 35.1844 18.7374 35.5126C19.0656 35.8407 19.25 36.2859 19.25 36.75C19.25 37.2141 19.0656 37.6593 18.7374 37.9874C18.4092 38.3156 17.9641 38.5 17.5 38.5ZM17.5 31.5H14C13.5359 31.5 13.0908 31.3156 12.7626 30.9874C12.4344 30.6593 12.25 30.2141 12.25 29.75C12.25 29.2859 12.4344 28.8407 12.7626 28.5126C13.0908 28.1844 13.5359 28 14 28H17.5C17.9641 28 18.4092 28.1844 18.7374 28.5126C19.0656 28.8407 19.25 29.2859 19.25 29.75C19.25 30.2141 19.0656 30.6593 18.7374 30.9874C18.4092 31.3156 17.9641 31.5 17.5 31.5ZM31.5 45.5H24.5V36.75H31.5V45.5ZM29.75 31.5H26.25C25.7859 31.5 25.3408 31.3156 25.0126 30.9874C24.6844 30.6593 24.5 30.2141 24.5 29.75C24.5 29.2859 24.6844 28.8407 25.0126 28.5126C25.3408 28.1844 25.7859 28 26.25 28H29.75C30.2141 28 30.6593 28.1844 30.9874 28.5126C31.3156 28.8407 31.5 29.2859 31.5 29.75C31.5 30.2141 31.3156 30.6593 30.9874 30.9874C30.6593 31.3156 30.2141 31.5 29.75 31.5ZM29.75 24.5H26.25C25.7859 24.5 25.3408 24.3156 25.0126 23.9874C24.6844 23.6592 24.5 23.2141 24.5 22.75C24.5 22.2859 24.6844 21.8408 25.0126 21.5126C25.3408 21.1844 25.7859 21 26.25 21H29.75C30.2141 21 30.6593 21.1844 30.9874 21.5126C31.3156 21.8408 31.5 22.2859 31.5 22.75C31.5 23.2141 31.3156 23.6592 30.9874 23.9874C30.6593 24.3156 30.2141 24.5 29.75 24.5ZM29.75 17.5H26.25C25.7859 17.5 25.3408 17.3156 25.0126 16.9874C24.6844 16.6592 24.5 16.2141 24.5 15.75C24.5 15.2859 24.6844 14.8408 25.0126 14.5126C25.3408 14.1844 25.7859 14 26.25 14H29.75C30.2141 14 30.6593 14.1844 30.9874 14.5126C31.3156 14.8408 31.5 15.2859 31.5 15.75C31.5 16.2141 31.3156 16.6592 30.9874 16.9874C30.6593 17.3156 30.2141 17.5 29.75 17.5ZM42 38.5H38.5C38.0359 38.5 37.5908 38.3156 37.2626 37.9874C36.9344 37.6593 36.75 37.2141 36.75 36.75C36.75 36.2859 36.9344 35.8407 37.2626 35.5126C37.5908 35.1844 38.0359 35 38.5 35H42C42.4641 35 42.9092 35.1844 43.2374 35.5126C43.5656 35.8407 43.75 36.2859 43.75 36.75C43.75 37.2141 43.5656 37.6593 43.2374 37.9874C42.9092 38.3156 42.4641 38.5 42 38.5ZM42 31.5H38.5C38.0359 31.5 37.5908 31.3156 37.2626 30.9874C36.9344 30.6593 36.75 30.2141 36.75 29.75C36.75 29.2859 36.9344 28.8407 37.2626 28.5126C37.5908 28.1844 38.0359 28 38.5 28H42C42.4641 28 42.9092 28.1844 43.2374 28.5126C43.5656 28.8407 43.75 29.2859 43.75 29.75C43.75 30.2141 43.5656 30.6593 43.2374 30.9874C42.9092 31.3156 42.4641 31.5 42 31.5ZM42 24.5H38.5C38.0359 24.5 37.5908 24.3156 37.2626 23.9874C36.9344 23.6592 36.75 23.2141 36.75 22.75C36.75 22.2859 36.9344 21.8408 37.2626 21.5126C37.5908 21.1844 38.0359 21 38.5 21H42C42.4641 21 42.9092 21.1844 43.2374 21.5126C43.5656 21.8408 43.75 22.2859 43.75 22.75C43.75 23.2141 43.5656 23.6592 43.2374 23.9874C42.9092 24.3156 42.4641 24.5 42 24.5Z" fill="#F8FAFC"/>
</svg>
