<svg width="48" height="48" viewBox="0 0 48 48" fill="none" xmlns="http://www.w3.org/2000/svg">
<rect width="48" height="48" rx="12" fill="#F9FAFB"/>
<path d="M22.9921 26.8051C23.9973 26.1359 24.7605 25.161 25.1687 24.0245C25.577 22.888 25.6087 21.6504 25.2591 20.4945C24.9095 19.3386 24.1973 18.3259 23.2276 17.6062C22.258 16.8864 21.0825 16.4978 19.8749 16.4978C18.6674 16.4978 17.4918 16.8864 16.5222 17.6062C15.5526 18.3259 14.8403 19.3386 14.4908 20.4945C14.1412 21.6504 14.1729 22.888 14.5811 24.0245C14.9894 25.161 15.7525 26.1359 16.7577 26.8051C14.9394 27.4752 13.3866 28.7154 12.3309 30.3404C12.2754 30.4229 12.2368 30.5155 12.2175 30.613C12.1981 30.7105 12.1983 30.8109 12.2181 30.9083C12.2379 31.0057 12.2768 31.0982 12.3327 31.1804C12.3885 31.2627 12.4601 31.333 12.5434 31.3873C12.6266 31.4416 12.7199 31.4788 12.8176 31.4967C12.9154 31.5147 13.0157 31.513 13.1128 31.4919C13.21 31.4707 13.3019 31.4304 13.3833 31.3734C13.4647 31.3164 13.534 31.2438 13.5871 31.1598C14.2681 30.1124 15.1999 29.2517 16.298 28.6559C17.3961 28.0601 18.6256 27.748 19.8749 27.748C21.1242 27.748 22.3538 28.0601 23.4518 28.6559C24.5499 29.2517 25.4817 30.1124 26.1627 31.1598C26.2727 31.3233 26.4427 31.4369 26.6358 31.4761C26.8289 31.5153 27.0297 31.4769 27.1947 31.3693C27.3598 31.2616 27.4758 31.0934 27.5178 30.9008C27.5598 30.7083 27.5243 30.507 27.419 30.3404C26.3633 28.7154 24.8104 27.4752 22.9921 26.8051ZM15.7499 22.1251C15.7499 21.3092 15.9919 20.5117 16.4451 19.8334C16.8984 19.155 17.5426 18.6263 18.2964 18.3141C19.0501 18.0019 19.8795 17.9202 20.6797 18.0793C21.4798 18.2385 22.2148 18.6314 22.7917 19.2083C23.3686 19.7852 23.7615 20.5202 23.9207 21.3203C24.0798 22.1205 23.9981 22.9499 23.6859 23.7037C23.3737 24.4574 22.845 25.1016 22.1667 25.5549C21.4883 26.0082 20.6908 26.2501 19.8749 26.2501C18.7813 26.2488 17.7328 25.8138 16.9595 25.0405C16.1862 24.2672 15.7512 23.2187 15.7499 22.1251ZM35.4506 31.3782C35.284 31.4868 35.081 31.5249 34.8864 31.4839C34.6918 31.4429 34.5214 31.3263 34.4127 31.1598C33.7326 30.1118 32.8008 29.2507 31.7025 28.6551C30.6042 28.0596 29.3743 27.7484 28.1249 27.7501C27.926 27.7501 27.7352 27.6711 27.5946 27.5304C27.4539 27.3898 27.3749 27.199 27.3749 27.0001C27.3749 26.8012 27.4539 26.6104 27.5946 26.4698C27.7352 26.3291 27.926 26.2501 28.1249 26.2501C28.7324 26.2495 29.3322 26.1148 29.8816 25.8555C30.431 25.5962 30.9163 25.2188 31.3029 24.7502C31.6895 24.2817 31.9678 23.7335 32.118 23.1449C32.2682 22.5563 32.2865 21.9417 32.1716 21.3452C32.0568 20.7487 31.8116 20.1849 31.4536 19.6941C31.0956 19.2034 30.6337 18.7977 30.1007 18.5062C29.5678 18.2146 28.977 18.0444 28.3707 18.0076C27.7643 17.9709 27.1573 18.0685 26.5931 18.2935C26.5011 18.3333 26.402 18.3542 26.3018 18.3551C26.2016 18.3559 26.1022 18.3367 26.0095 18.2985C25.9169 18.2602 25.8328 18.2038 25.7623 18.1326C25.6918 18.0614 25.6363 17.9767 25.5991 17.8836C25.5619 17.7906 25.5437 17.691 25.5456 17.5908C25.5475 17.4906 25.5695 17.3918 25.6102 17.3002C25.651 17.2086 25.7097 17.1261 25.7828 17.0576C25.856 16.9891 25.9421 16.936 26.0362 16.9013C27.3275 16.3863 28.7639 16.3678 30.0681 16.8493C31.3723 17.3308 32.452 18.2783 33.0989 19.5089C33.7458 20.7395 33.914 22.1661 33.5711 23.5134C33.2283 24.8608 32.3986 26.0334 31.2421 26.8051C33.0604 27.4752 34.6133 28.7154 35.669 30.3404C35.7776 30.507 35.8156 30.7099 35.7747 30.9045C35.7337 31.0992 35.6171 31.2695 35.4506 31.3782Z" fill="#047857"/>
</svg>
