<svg width="48" height="48" viewBox="0 0 48 48" fill="none" xmlns="http://www.w3.org/2000/svg">
<rect width="48" height="48" rx="12" fill="#F9FAFB"/>
<path d="M31.5 15.75H16.5C15.9033 15.75 15.331 15.9871 14.909 16.409C14.4871 16.831 14.25 17.4033 14.25 18V28.5C14.25 29.0967 14.4871 29.669 14.909 30.091C15.331 30.5129 15.9033 30.75 16.5 30.75H31.5C32.0967 30.75 32.669 30.5129 33.091 30.091C33.5129 29.669 33.75 29.0967 33.75 28.5V18C33.75 17.4033 33.5129 16.831 33.091 16.409C32.669 15.9871 32.0967 15.75 31.5 15.75ZM32.25 28.5C32.25 28.6989 32.171 28.8897 32.0303 29.0303C31.8897 29.171 31.6989 29.25 31.5 29.25H16.5C16.3011 29.25 16.1103 29.171 15.9697 29.0303C15.829 28.8897 15.75 28.6989 15.75 28.5V18C15.75 17.8011 15.829 17.6103 15.9697 17.4697C16.1103 17.329 16.3011 17.25 16.5 17.25H31.5C31.6989 17.25 31.8897 17.329 32.0303 17.4697C32.171 17.6103 32.25 17.8011 32.25 18V28.5ZM27.75 33C27.75 33.1989 27.671 33.3897 27.5303 33.5303C27.3897 33.671 27.1989 33.75 27 33.75H21C20.8011 33.75 20.6103 33.671 20.4697 33.5303C20.329 33.3897 20.25 33.1989 20.25 33C20.25 32.8011 20.329 32.6103 20.4697 32.4697C20.6103 32.329 20.8011 32.25 21 32.25H27C27.1989 32.25 27.3897 32.329 27.5303 32.4697C27.671 32.6103 27.75 32.8011 27.75 33Z" fill="#047857"/>
</svg>
