<svg width="48" height="48" viewBox="0 0 48 48" fill="none" xmlns="http://www.w3.org/2000/svg">
<rect width="48" height="48" rx="12" fill="#F9FAFB"/>
<path d="M26.026 20.0352L17.626 28.2852C17.4858 28.4232 17.2969 28.5005 17.1001 28.5005C16.9033 28.5005 16.7145 28.4232 16.5742 28.2852L12.9742 24.7499C12.9039 24.6808 12.848 24.5986 12.8095 24.5079C12.7711 24.4172 12.7509 24.3199 12.75 24.2214C12.7492 24.1229 12.7678 24.0251 12.8047 23.9338C12.8416 23.8425 12.8962 23.7594 12.9653 23.6891C13.0343 23.6189 13.1166 23.5629 13.2072 23.5245C13.2979 23.486 13.3953 23.4658 13.4938 23.465C13.5923 23.4641 13.69 23.4827 13.7813 23.5197C13.8727 23.5566 13.9558 23.6111 14.026 23.6802L17.1001 26.699L24.9751 18.9646C25.1171 18.8251 25.3087 18.7477 25.5077 18.7495C25.6062 18.7504 25.7036 18.7706 25.7943 18.8091C25.8851 18.8477 25.9673 18.9037 26.0364 18.974C26.1054 19.0443 26.16 19.1275 26.1969 19.2189C26.2338 19.3102 26.2523 19.408 26.2515 19.5065C26.2506 19.6051 26.2303 19.7025 26.1918 19.7932C26.1533 19.8839 26.0973 19.9661 26.027 20.0352H26.026ZM35.0354 18.974C34.9664 18.9036 34.8842 18.8476 34.7934 18.809C34.7027 18.7705 34.6053 18.7502 34.5067 18.7493C34.4082 18.7484 34.3104 18.767 34.219 18.8039C34.1276 18.8409 34.0444 18.8955 33.9742 18.9646L26.0992 26.699L24.3339 24.9646C24.1919 24.8252 24.0004 24.748 23.8014 24.7498C23.6025 24.7517 23.4124 24.8325 23.2731 24.9744C23.1337 25.1164 23.0565 25.3079 23.0583 25.5069C23.0602 25.7058 23.141 25.8958 23.2829 26.0352L25.5732 28.2852C25.7135 28.4232 25.9024 28.5005 26.0992 28.5005C26.2959 28.5005 26.4848 28.4232 26.6251 28.2852L35.0251 20.0352C35.0955 19.9662 35.1516 19.8841 35.1903 19.7934C35.2289 19.7027 35.2493 19.6053 35.2502 19.5067C35.2512 19.4082 35.2327 19.3104 35.1959 19.219C35.159 19.1275 35.1045 19.0443 35.0354 18.974Z" fill="#047857"/>
</svg>
