<svg width="48" height="48" viewBox="0 0 48 48" fill="none" xmlns="http://www.w3.org/2000/svg">
<rect width="48" height="48" rx="12" fill="#F9FAFB"/>
<path d="M34.8975 17.6251C34.7895 17.5577 34.6662 17.5189 34.5391 17.5124C34.412 17.5058 34.2853 17.5317 34.1709 17.5876C30.1463 19.5564 27.2719 18.6339 24.2334 17.6607C21.0459 16.6398 17.7413 15.5851 13.1756 17.8145C13.0481 17.8757 12.9404 17.9717 12.8651 18.0915C12.7898 18.2113 12.7499 18.3499 12.75 18.4914V29.7348C12.75 29.8621 12.7823 29.9872 12.844 30.0985C12.9057 30.2098 12.9947 30.3036 13.1027 30.371C13.2106 30.4384 13.3339 30.4773 13.461 30.4839C13.588 30.4905 13.7147 30.4647 13.8291 30.4089C17.8538 28.4401 20.7281 29.3626 23.7712 30.3357C25.575 30.9123 27.4125 31.5001 29.49 31.5001C31.0922 31.5001 32.8397 31.1514 34.8253 30.182C34.9514 30.1204 35.0577 30.0247 35.1322 29.9057C35.2066 29.7867 35.2461 29.6492 35.2463 29.5089V18.2654C35.2474 18.1378 35.2159 18.0121 35.1549 17.9C35.0939 17.788 35.0053 17.6934 34.8975 17.6251ZM33.75 29.0317C29.9438 30.7351 27.1641 29.8464 24.2288 28.9079C22.425 28.3314 20.5875 27.7436 18.51 27.7436C17.0504 27.7506 15.6057 28.037 14.2538 28.5873V18.9686C18.06 17.2651 20.8397 18.1539 23.775 19.0923C26.7103 20.0307 29.7319 21.0001 33.75 19.4148V29.0317ZM24 21.0001C23.4067 21.0001 22.8266 21.1761 22.3333 21.5057C21.8399 21.8354 21.4554 22.3039 21.2284 22.8521C21.0013 23.4002 20.9419 24.0034 21.0576 24.5854C21.1734 25.1673 21.4591 25.7019 21.8787 26.1214C22.2982 26.541 22.8328 26.8267 23.4147 26.9425C23.9967 27.0582 24.5999 26.9988 25.148 26.7718C25.6962 26.5447 26.1648 26.1602 26.4944 25.6668C26.8241 25.1735 27 24.5935 27 24.0001C27 23.2045 26.6839 22.4414 26.1213 21.8788C25.5587 21.3162 24.7956 21.0001 24 21.0001ZM24 25.5001C23.7033 25.5001 23.4133 25.4121 23.1666 25.2473C22.92 25.0825 22.7277 24.8482 22.6142 24.5741C22.5006 24.3001 22.4709 23.9985 22.5288 23.7075C22.5867 23.4165 22.7296 23.1492 22.9393 22.9395C23.1491 22.7297 23.4164 22.5868 23.7074 22.5289C23.9983 22.4711 24.2999 22.5008 24.574 22.6143C24.8481 22.7278 25.0824 22.9201 25.2472 23.1668C25.412 23.4134 25.5 23.7034 25.5 24.0001C25.5 24.3979 25.342 24.7795 25.0607 25.0608C24.7794 25.3421 24.3978 25.5001 24 25.5001ZM17.25 21.0001V25.5001C17.25 25.699 17.171 25.8898 17.0303 26.0304C16.8897 26.1711 16.6989 26.2501 16.5 26.2501C16.3011 26.2501 16.1103 26.1711 15.9697 26.0304C15.829 25.8898 15.75 25.699 15.75 25.5001V21.0001C15.75 20.8012 15.829 20.6104 15.9697 20.4698C16.1103 20.3291 16.3011 20.2501 16.5 20.2501C16.6989 20.2501 16.8897 20.3291 17.0303 20.4698C17.171 20.6104 17.25 20.8012 17.25 21.0001ZM30.75 27.0001V22.5001C30.75 22.3012 30.829 22.1104 30.9697 21.9698C31.1103 21.8291 31.3011 21.7501 31.5 21.7501C31.6989 21.7501 31.8897 21.8291 32.0303 21.9698C32.171 22.1104 32.25 22.3012 32.25 22.5001V27.0001C32.25 27.199 32.171 27.3898 32.0303 27.5304C31.8897 27.6711 31.6989 27.7501 31.5 27.7501C31.3011 27.7501 31.1103 27.6711 30.9697 27.5304C30.829 27.3898 30.75 27.199 30.75 27.0001Z" fill="#047857"/>
</svg>
