<svg width="48" height="48" viewBox="0 0 48 48" fill="none" xmlns="http://www.w3.org/2000/svg">
<rect width="48" height="48" rx="12" fill="#F9FAFB"/>
<path d="M32.2303 23.0783C32.2019 22.9581 32.1443 22.8468 32.0625 22.7542C31.9807 22.6617 31.8774 22.5907 31.7616 22.5477L26.3607 20.5218L27.735 13.6471C27.7662 13.4874 27.7445 13.3218 27.6733 13.1755C27.6021 13.0292 27.4852 12.91 27.3403 12.8359C27.1954 12.7618 27.0304 12.7369 26.8701 12.7648C26.7097 12.7928 26.5629 12.8721 26.4516 12.9908L15.9516 24.2408C15.8663 24.3307 15.8046 24.4403 15.772 24.5598C15.7394 24.6793 15.737 24.8051 15.7648 24.9258C15.7927 25.0465 15.85 25.1584 15.9317 25.2516C16.0133 25.3447 16.1168 25.4162 16.2328 25.4596L21.6357 27.4855L20.265 34.3527C20.2339 34.5124 20.2556 34.678 20.3268 34.8243C20.398 34.9706 20.5149 35.0898 20.6597 35.1639C20.8046 35.238 20.9697 35.263 21.13 35.235C21.2903 35.2071 21.4372 35.1277 21.5485 35.009L32.0485 23.759C32.1322 23.6691 32.1926 23.56 32.2243 23.4413C32.256 23.3227 32.2581 23.198 32.2303 23.0783ZM22.2535 32.0624L23.235 27.1518C23.2702 26.9776 23.2423 26.7966 23.1565 26.6411C23.0706 26.4855 22.9324 26.3655 22.7663 26.3024L17.8125 24.4415L25.7457 15.9421L24.765 20.8527C24.7299 21.0269 24.7577 21.2079 24.8436 21.3634C24.9294 21.519 25.0677 21.639 25.2338 21.7021L30.1838 23.5583L22.2535 32.0624Z" fill="#047857"/>
</svg>
