<svg width="48" height="48" viewBox="0 0 48 48" fill="none" xmlns="http://www.w3.org/2000/svg">
<rect width="48" height="48" rx="12" fill="#F9FAFB"/>
<path d="M33 16.4999V20.9999C33 21.1989 32.921 21.3896 32.7803 21.5303C32.6397 21.6709 32.4489 21.7499 32.25 21.7499H27.75C27.5511 21.7499 27.3603 21.6709 27.2197 21.5303C27.079 21.3896 27 21.1989 27 20.9999C27 20.801 27.079 20.6103 27.2197 20.4696C27.3603 20.329 27.5511 20.2499 27.75 20.2499H30.4397L29.0681 18.8784C27.6742 17.4781 25.7817 16.6882 23.8059 16.6818H23.7638C21.8045 16.6772 19.9223 17.4441 18.5241 18.8165C18.3808 18.9502 18.191 19.0226 17.9951 19.0181C17.7992 19.0136 17.6128 18.9326 17.4759 18.7925C17.3389 18.6523 17.2623 18.4642 17.2623 18.2682C17.2623 18.0723 17.339 17.8841 17.4759 17.744C19.1705 16.0878 21.4498 15.1667 23.8193 15.1806C26.1887 15.1944 28.4571 16.1422 30.1322 17.8181L31.5 19.1896V16.4999C31.5 16.301 31.579 16.1103 31.7197 15.9696C31.8603 15.829 32.0511 15.7499 32.25 15.7499C32.4489 15.7499 32.6397 15.829 32.7803 15.9696C32.921 16.1103 33 16.301 33 16.4999ZM29.4759 29.1834C28.0639 30.5627 26.1651 31.3297 24.1912 31.3181C22.2173 31.3065 20.3276 30.5173 18.9319 29.1215L17.5603 27.7499H20.25C20.4489 27.7499 20.6397 27.6709 20.7803 27.5303C20.921 27.3896 21 27.1989 21 26.9999C21 26.801 20.921 26.6103 20.7803 26.4696C20.6397 26.329 20.4489 26.2499 20.25 26.2499H15.75C15.5511 26.2499 15.3603 26.329 15.2197 26.4696C15.079 26.6103 15 26.801 15 26.9999V31.4999C15 31.6989 15.079 31.8896 15.2197 32.0303C15.3603 32.1709 15.5511 32.2499 15.75 32.2499C15.9489 32.2499 16.1397 32.1709 16.2803 32.0303C16.421 31.8896 16.5 31.6989 16.5 31.4999V28.8103L17.8716 30.1818C19.5443 31.8629 21.816 32.8112 24.1875 32.8181H24.2372C26.5885 32.8241 28.8476 31.9036 30.525 30.2559C30.662 30.1158 30.7387 29.9276 30.7387 29.7317C30.7387 29.5357 30.662 29.3476 30.5251 29.2074C30.3881 29.0673 30.2018 28.9863 30.0059 28.9818C29.81 28.9773 29.6201 29.0497 29.4769 29.1834H29.4759Z" fill="#047857"/>
</svg>
