<svg width="48" height="48" viewBox="0 0 48 48" fill="none" xmlns="http://www.w3.org/2000/svg">
<rect width="48" height="48" rx="12" fill="#F9FAFB"/>
<path d="M28.7024 28.4999H22.4361C22.3226 29.1716 22.058 29.8089 21.6624 30.3635C21.2667 30.9181 20.7503 31.3756 20.1521 31.7016C19.5538 32.0275 18.8894 32.2134 18.2088 32.2452C17.5283 32.2769 16.8494 32.1538 16.2234 31.8849C15.5974 31.6161 15.0406 31.2087 14.595 30.6933C14.1494 30.178 13.8267 29.5682 13.6511 28.9099C13.4755 28.2517 13.4516 27.5621 13.5813 26.8933C13.711 26.2245 13.9909 25.5938 14.3999 25.0489C14.5193 24.8898 14.6971 24.7847 14.8941 24.7566C15.0911 24.7286 15.2912 24.7799 15.4503 24.8994C15.6095 25.0189 15.7146 25.1967 15.7427 25.3937C15.7707 25.5907 15.7193 25.7908 15.5999 25.9499C15.2085 26.4682 14.9977 27.1004 14.9999 27.7499C14.9999 28.5455 15.3159 29.3086 15.8785 29.8712C16.4412 30.4338 17.2042 30.7499 17.9999 30.7499C18.7955 30.7499 19.5586 30.4338 20.1212 29.8712C20.6838 29.3086 20.9999 28.5455 20.9999 27.7499C20.9999 27.551 21.0789 27.3602 21.2195 27.2196C21.3602 27.0789 21.551 26.9999 21.7499 26.9999H28.7024C28.8675 26.7139 29.1223 26.4904 29.4274 26.3641C29.7324 26.2377 30.0707 26.2155 30.3896 26.301C30.7086 26.3865 30.9904 26.5748 31.1914 26.8367C31.3924 27.0987 31.5014 27.4197 31.5014 27.7499C31.5014 28.0801 31.3924 28.4011 31.1914 28.663C30.9904 28.925 30.7086 29.1133 30.3896 29.1988C30.0707 29.2842 29.7324 29.2621 29.4274 29.1357C29.1223 29.0093 28.8675 28.7858 28.7024 28.4999ZM17.9999 29.2499C18.2597 29.25 18.515 29.1826 18.741 29.0543C18.9669 28.9261 19.1556 28.7413 19.2887 28.5182C19.4218 28.295 19.4946 28.0412 19.5001 27.7814C19.5055 27.5217 19.4434 27.265 19.3199 27.0364L22.6733 21.5858C22.7774 21.4165 22.81 21.2127 22.7639 21.0194C22.7179 20.826 22.5969 20.6588 22.4277 20.5546C22.0268 20.3078 21.6896 19.9701 21.4434 19.5689C21.1972 19.1677 21.0489 18.7141 21.0104 18.245C20.972 17.7758 21.0445 17.3042 21.222 16.8682C21.3996 16.4322 21.6773 16.0442 22.0326 15.7354C22.388 15.4266 22.811 15.2058 23.2674 15.0908C23.7239 14.9758 24.2011 14.9698 24.6603 15.0733C25.1195 15.1769 25.5479 15.387 25.9108 15.6868C26.2738 15.9866 26.5611 16.3676 26.7496 16.7989C26.8291 16.9813 26.9779 17.1246 27.1631 17.1973C27.3483 17.27 27.5548 17.2662 27.7372 17.1866C27.9196 17.107 28.0629 16.9583 28.1356 16.7731C28.2083 16.5878 28.2044 16.3813 28.1249 16.1989C27.8547 15.5813 27.4492 15.0323 26.9384 14.5925C26.4276 14.1526 25.8245 13.8331 25.1736 13.6576C24.5228 13.4821 23.8408 13.4551 23.1781 13.5785C22.5154 13.702 21.8889 13.9727 21.3448 14.3708C20.8008 14.7688 20.3532 15.284 20.035 15.8783C19.7168 16.4726 19.5361 17.1308 19.5064 17.8042C19.4767 18.4777 19.5987 19.1492 19.8634 19.7692C20.128 20.3891 20.5286 20.9417 21.0355 21.3861L18.0411 26.2499C18.0271 26.2499 18.0139 26.2499 17.9999 26.2499C17.602 26.2499 17.2205 26.4079 16.9392 26.6892C16.6579 26.9705 16.4999 27.3521 16.4999 27.7499C16.4999 28.1477 16.6579 28.5292 16.9392 28.8105C17.2205 29.0918 17.602 29.2499 17.9999 29.2499ZM29.9999 23.2499C29.4216 23.2499 28.8487 23.361 28.3124 23.5771L25.3199 18.7124C25.4758 18.4234 25.5327 18.0913 25.4817 17.7669C25.4307 17.4425 25.2746 17.1438 25.0375 16.9167C24.8004 16.6895 24.4953 16.5465 24.169 16.5095C23.8428 16.4724 23.5134 16.5435 23.2314 16.7117C22.9494 16.8799 22.7304 17.1361 22.608 17.4408C22.4856 17.7455 22.4666 18.0819 22.5538 18.3985C22.6411 18.715 22.8298 18.9942 23.091 19.1932C23.3522 19.3921 23.6715 19.4999 23.9999 19.4999H24.0411L27.3955 24.9514C27.4999 25.1205 27.6671 25.2413 27.8605 25.2871C28.0538 25.333 28.2575 25.3003 28.4267 25.1961C28.8216 24.9527 29.2675 24.8042 29.7295 24.7622C30.1915 24.7202 30.6569 24.7859 31.0891 24.9542C31.5214 25.1224 31.9088 25.3886 32.2208 25.7318C32.5329 26.0751 32.761 26.486 32.8875 26.9323C33.0139 27.3786 33.0351 27.8481 32.9494 28.304C32.8637 28.7599 32.6735 29.1897 32.3937 29.5597C32.1138 29.9296 31.752 30.2296 31.3367 30.4362C30.9213 30.6427 30.4637 30.7501 29.9999 30.7499C29.801 30.7499 29.6102 30.8289 29.4695 30.9696C29.3289 31.1102 29.2499 31.301 29.2499 31.4999C29.2499 31.6988 29.3289 31.8896 29.4695 32.0302C29.6102 32.1709 29.801 32.2499 29.9999 32.2499C31.1933 32.2499 32.3379 31.7758 33.1818 30.9319C34.0258 30.088 34.4999 28.9434 34.4999 27.7499C34.4999 26.5564 34.0258 25.4118 33.1818 24.5679C32.3379 23.724 31.1933 23.2499 29.9999 23.2499Z" fill="#047857"/>
</svg>
