<svg width="48" height="48" viewBox="0 0 48 48" fill="none" xmlns="http://www.w3.org/2000/svg">
<path d="M16.7606 17.7065C18.1525 20.6057 20.0501 23.323 22.4533 25.7261C24.8564 28.1293 27.5737 30.0269 30.473 31.4189C30.7223 31.5386 30.847 31.5985 31.0048 31.6445C31.5655 31.8079 32.254 31.6905 32.7289 31.3505C32.8625 31.2548 32.9768 31.1405 33.2055 30.9119C33.9047 30.2127 34.2543 29.863 34.6058 29.6345C35.9316 28.7725 37.6408 28.7725 38.9666 29.6345C39.3181 29.863 39.6677 30.2127 40.3669 30.9119L40.7567 31.3016C41.8196 32.3645 42.351 32.8959 42.6397 33.4667C43.2138 34.6018 43.2138 35.9423 42.6397 37.0775C42.351 37.6482 41.8196 38.1797 40.7567 39.2426L40.4414 39.5578C39.3822 40.6171 38.8525 41.1467 38.1325 41.5512C37.3335 42 36.0925 42.3228 35.176 42.32C34.3501 42.3176 33.7857 42.1574 32.6568 41.8369C26.59 40.115 20.8653 36.8661 16.0893 32.0901C11.3134 27.3141 8.06441 21.5894 6.34247 15.5226C6.02206 14.3937 5.86185 13.8293 5.85939 13.0034C5.85666 12.0869 6.17939 10.846 6.62823 10.047C7.03273 9.32689 7.56235 8.79727 8.62159 7.73802L8.93686 7.42275C9.99975 6.35987 10.5312 5.82843 11.102 5.53974C12.2371 4.9656 13.5776 4.9656 14.7127 5.53974C15.2835 5.82842 15.8149 6.35987 16.8778 7.42275L17.2676 7.81249C17.9668 8.5117 18.3164 8.86131 18.5449 9.21287C19.4069 10.5386 19.4069 12.2478 18.5449 13.5736C18.3164 13.9251 17.9668 14.2748 17.2676 14.974C17.0389 15.2026 16.9246 15.3169 16.8289 15.4505C16.4889 15.9254 16.3715 16.6139 16.535 17.1746C16.581 17.3324 16.6408 17.4571 16.7606 17.7065Z" stroke="#047857" stroke-width="3.5" stroke-linecap="round" stroke-linejoin="round"/>
</svg>
