<svg width="250" height="18" viewBox="0 0 250 18" fill="none" xmlns="http://www.w3.org/2000/svg">
<path d="M1.39807 9.6895C2.98745 8.84076 4.7248 8.36565 6.30806 8.06016C6.79363 7.96818 6.63615 8.29602 6.97572 8.24547C7.66428 8.14046 8.15678 7.86133 8.75974 7.81889C8.96072 7.80608 8.83834 8.27638 9.04585 8.25404C10.1818 8.12997 11.222 7.75241 12.4317 7.55695C17.9978 6.69468 23.7261 5.95531 29.2308 5.43726C31.1209 5.25649 33.4423 5.36929 35.2961 5.0037C35.5161 4.96018 35.3445 4.60796 35.3835 4.57323C35.9997 4.04007 35.8571 4.8034 36.3031 4.85603C38.0656 5.06398 40.0873 4.90411 41.6662 4.62003C42.3585 4.49633 41.5931 3.82963 42.3341 4.17639C42.3856 4.19972 42.2422 4.60519 42.4379 4.62984C42.8812 4.68486 43.7071 4.54374 44.052 4.54599C44.7162 4.5522 44.8254 4.53927 45.4539 4.49253C46.3062 4.43275 47.3862 4.54337 48.2697 4.38802C48.4586 4.35367 48.1763 3.97259 48.4752 3.88171C48.7742 3.79082 49.5861 3.76528 49.8673 3.83996C50.1482 3.91457 50.0541 4.23747 50.1078 4.30607C50.5493 4.88567 51.4351 3.9768 51.5567 3.94763C53.741 3.43998 55.8036 3.7922 57.8216 3.67201C59.3903 3.57756 61.0804 3.32526 62.6094 3.26765C64.4481 3.19978 65.9627 3.34406 67.6971 3.22719C67.8806 3.21534 67.6439 2.75398 67.8681 2.73856C70.2384 2.57578 72.6951 2.52586 75.0644 2.7551C75.3025 2.77849 75.0129 3.20381 75.2516 3.25194C76.7121 3.53694 79.0503 4.27368 79.8647 2.44307C80.8624 2.48021 82.0794 2.51428 82.9885 2.85012C83.5709 3.06639 83.0285 3.53418 83.7191 3.32073C83.8746 3.27315 83.6588 2.88436 83.893 2.84289C84.8795 2.66867 85.9697 2.76589 86.9516 2.5347C87.1513 2.48675 87.0868 2.13439 87.142 2.0691C87.6065 1.53987 88.4283 2.37174 88.6041 2.4292C89.9431 2.8567 90.9107 2.65057 92.1555 2.63213C92.4445 2.62808 92.0917 2.16081 92.3694 2.13986C93.7967 2.0379 95.2624 2.04625 96.6661 2.22794C96.9779 2.26952 96.7005 2.68044 96.8499 2.72103C97.5088 2.89517 97.6385 2.12734 98.2714 2.27998C98.4049 2.31119 98.3369 2.65937 98.3619 2.69696C98.7526 3.2871 99.0655 2.4338 99.1628 2.41321C100.393 2.13381 101.2 3.00332 102.396 2.8569C102.537 2.83853 102.21 2.40547 102.608 2.38068C105.256 2.21303 108.076 2.29019 110.727 2.6052C111.139 2.65359 110.85 2.98713 110.876 3.02741C111.306 3.65648 111.568 2.80236 111.702 2.76856C112.759 2.52402 113.744 3.22521 114.449 2.20354C118.913 2.50149 123.367 1.89099 127.8 2.76536C127.856 2.77545 127.759 3.19512 127.871 3.21344C129.226 3.43864 128.961 2.78954 129.85 1.98695C130.075 1.78542 130.767 2.74212 130.828 2.81219C131.051 3.07039 130.826 3.69516 130.9 3.74496C131.515 4.13579 131.401 2.07535 132.228 2.06937C132.254 2.07264 132.148 2.45271 132.218 2.48998C132.434 2.60703 132.647 2.45493 132.859 2.5842C133.345 2.88338 133.523 3.88381 134.257 3.29655C134.35 3.22036 134.201 2.05203 134.94 2.10298C135.235 2.12424 136.537 2.09694 136.903 2.17079C137.268 2.24452 137.019 2.62261 137.045 2.63879C138.03 3.13178 137.659 3.34024 138.154 4.07526C138.65 4.80754 138.504 3.0557 138.704 2.85908C138.904 2.66301 139.625 3.07051 139.802 3.21256C139.979 3.35466 139.76 3.59512 139.918 3.67526C140.961 4.19883 140.37 2.80319 140.712 2.52341C141.517 1.86101 142.152 3.15788 142.898 3.28199C143.099 3.31551 142.934 3.02021 143.113 2.99175C143.822 2.88298 144.251 3.28673 145.056 2.91161C145.188 2.85048 145.836 2.06645 146.26 2.63826C146.32 2.72072 146.152 3.04526 146.454 3.11664C146.905 3.22376 147.716 3.29147 148.199 3.18143C148.556 3.10002 148.145 2.56784 148.595 2.73198C148.795 2.80528 148.426 3.11883 148.801 3.23049C149.175 3.34212 150.128 3.32501 150.49 3.31297C150.851 3.30069 150.652 2.89656 150.681 2.86919C150.857 2.71234 151.55 2.51475 151.611 2.51503C154.732 2.45497 157.605 3.12846 160.606 2.89309C160.842 2.87521 160.684 2.44881 160.72 2.44168C161.525 2.26027 160.893 3.39729 161.457 3.7754C161.372 2.90938 161.709 3.06517 162.286 2.96831C162.564 2.92093 162.411 2.58599 162.437 2.55157C162.847 2.04076 163.136 2.6979 163.21 2.83228C163.484 3.3266 163.778 2.74052 163.964 3.07091C164.151 3.39883 163.726 3.88726 164.278 3.87921C164.431 3.5686 164.019 2.75957 164.437 2.62685C166.016 2.12493 168.943 2.75054 170.193 2.81177C171.433 2.87306 171.868 2.81408 172.604 2.92318C173.943 3.1203 173.45 2.52107 174.277 2.24233C175.105 1.96354 174.708 3.44464 174.829 3.76214C174.947 4.0795 175.073 3.75171 175.219 3.92581C175.365 4.09986 175.052 4.3175 175.393 4.38157C175.735 4.4456 176.661 3.87574 176.78 3.54262C177.03 2.83692 176.61 2.09958 177.507 2.35502C177.559 2.37018 177.393 2.75999 177.591 2.79834C179.157 3.0901 180.772 3.09996 182.376 3.35515C182.594 3.39086 182.402 3.82477 182.529 3.85045C183.851 4.1191 183.375 3.39235 184.091 2.57718C183.936 3.65686 184.34 4.31433 185.334 4.31389C185.932 4.31397 185.825 3.84357 186.208 3.5088C186.323 3.40789 186.746 3.7283 186.821 3.50619C187.066 2.78009 186.666 1.97239 187.684 2.28752C187.728 2.30253 187.59 2.70004 187.744 2.72287C188.745 2.87225 188.829 2.11405 189.936 2.01303C190.803 1.93381 192.337 2.38185 193.308 2.44728C193.3 3.66021 194.214 3.37334 194.575 2.5333C195.202 2.56099 195.875 2.50637 196.477 2.6151C196.684 2.65214 196.552 3.00479 196.579 3.04243C196.985 3.63297 197.244 2.81634 197.378 2.78287C198.817 2.45572 200.09 3.05583 201.482 2.43343C201.532 2.41101 201.602 1.56756 201.987 2.17712C202.011 2.21916 201.552 2.60918 202.215 2.62916C202.877 2.64922 204.123 3.08166 205.018 2.67624C205.235 2.57865 205.775 1.88558 206.224 2.41208C206.284 2.48359 206.224 2.72629 206.311 2.85923C206.593 3.2827 206.744 2.42842 207.092 3.14558C207.442 3.86264 208.154 4.39144 209.08 3.87391C209.109 3.85881 209.317 3.1797 209.61 3.18442C210.078 3.19256 210.741 3.31925 211.223 3.30431C211.454 3.29692 211.297 2.88118 211.337 2.87264C212.9 2.60315 213.91 2.95309 215.671 3.06917C215.986 3.09149 216.865 2.49598 217.474 2.93042C218.142 3.40576 217.534 5.48239 219.016 4.94752C219.612 4.73314 220.284 2.10088 221.382 3.41678C223.501 3.00952 225.542 3.62316 227.569 3.05357C227.661 3.02826 227.92 2.28739 228.135 2.28737C228.459 2.28859 228.634 2.62121 228.891 2.63144C229.93 2.68458 230.842 2.34629 231.801 2.33931C232.164 2.33583 232.058 2.69438 232.489 2.68989C232.918 2.68492 233.176 2.20583 233.759 2.3952C234.204 2.53934 234.665 3.46037 235.269 3.53214C235.232 2.59784 235.661 2.59004 236.383 2.2933C236.522 2.2358 236.347 1.92171 236.412 1.87777C236.672 1.69177 236.941 1.94312 237.183 1.74281C237.242 1.69464 237.222 1.37607 237.269 1.31872C237.665 0.819146 238.412 1.48258 238.54 1.5979C239.031 2.0361 239.208 1.60542 239.565 1.76401C239.921 1.92244 239.43 2.19711 239.838 2.27748C240.629 2.44821 241.842 2.28905 242.715 2.2178C243.068 2.18712 242.786 1.78668 242.835 1.77245C243.549 1.59374 244.306 1.96847 244.593 1.08266C245.325 3.20846 244.943 0.831884 246.027 1.14419C246.117 1.16901 246.355 2.18553 246.039 2.37731C245.717 2.56949 245.273 2.29477 244.877 2.57785C244.787 2.64423 244.321 3.67297 244.246 3.73987C243.673 4.26328 243.422 2.72904 243.382 2.64774C242.917 1.77145 242.29 2.88423 242.098 2.97453C241.667 3.18146 241.248 3.24753 240.843 3.2994C240.483 3.34723 240.137 3.38107 239.798 3.52762C239.353 3.71733 239.388 4.73344 239.02 4.73118C237.786 4.72329 237.251 3.34084 236.132 4.64847C235.889 4.92715 236.225 6.01838 235.226 5.20828C235.163 5.15727 234.482 4.40015 234.14 4.92687C234.097 4.99328 234.118 5.31616 234.058 5.34702C233.654 5.54752 233.36 5.30662 232.909 5.45615C232.457 5.60566 231.909 5.8203 231.367 5.73916C231.04 5.69083 230.591 5.11033 230.427 4.97085C229.964 4.56871 229.52 5.28837 229.217 4.78748C228.913 4.28399 229.42 3.47324 228.675 3.17388C228.69 4.01475 228.672 4.87932 228.671 5.72567C227.179 5.76588 225.661 5.55784 224.087 5.65499C223.892 5.66786 224.109 6.11187 223.9 6.13729C223.029 6.24196 222.172 5.95007 221.323 6.10705C220.648 6.23091 219.911 6.73337 219.19 6.87609C218.718 5.92832 217.646 6.2868 216.845 6.22089C216.565 6.19825 216.577 5.94091 216.375 5.86256C215.614 5.57299 215.989 6.41317 215.786 6.55243C214.922 7.14621 214.745 5.22615 213.765 5.29773C213.712 5.30093 213.087 6.34173 212.998 6.40765C212.437 6.83731 212.896 6.05301 212.536 5.98554C211.878 5.8621 211.416 5.62742 210.645 5.94429C210.42 6.03807 209.887 6.68856 209.433 6.20314C209.373 6.13958 209.398 5.80001 209.351 5.78111C208.492 5.46723 208.488 6.53246 208.004 6.9025C207.519 7.27244 206.741 6.55107 206.581 6.34192C206.167 5.80095 206.888 6.10215 206.91 6.0479C207.162 5.403 206.586 5.52371 206.189 5.4765C206.112 4.43333 205.545 4.50578 205.767 5.43193C205.792 5.53308 206.107 5.43023 206.189 5.4765C205.851 6.50727 205.226 6.64925 204.514 5.70311C204.18 5.25961 204.482 4.73163 203.491 4.93862C203.04 5.03201 203.226 5.74836 202.828 5.95046C201.92 6.41158 200.711 5.75775 199.752 5.876C199.404 5.91893 199.749 6.30809 199.511 6.35099C198.886 6.46595 198.293 6.17796 197.695 6.33645C197.64 6.35132 197.781 6.76172 197.59 6.76926C196.142 6.83435 194.865 6.58428 193.323 6.59222C192.578 6.5963 191.239 6.83595 190.456 6.79695C189.071 6.73223 187.498 6.1452 186.352 6.29897C185.612 6.39743 185.777 6.80837 185.461 7.09139C184.852 7.64 183.753 6.6721 183.605 6.52203C183.6 6.51707 184.242 6.41577 183.898 6.20642C183.696 5.76689 183.612 6.52007 183.605 6.52203C183.508 6.42516 182.22 6.33955 181.963 6.41979C181.824 6.46367 181.904 6.85369 181.832 6.86918C180.078 7.22893 178.43 7.33678 176.69 7.16246C176.66 7.15472 176.704 6.71773 176.632 6.70497C175.63 6.51549 174.989 7.05266 174.159 7.37348C173.329 7.69414 172.667 7.59064 172.169 6.8428C171.537 6.93976 170.638 6.61173 170.13 6.41248C169.618 6.21326 169.55 7.06373 169.505 7.08071C168.102 7.62384 167.286 7.14004 165.817 7.06928C165.12 7.03419 163.731 7.16208 162.971 7.2575C162.37 7.33433 162.005 7.13625 161.453 7.26541C161.38 7.28266 161.455 7.66099 161.433 7.67563C160.825 8.1305 161.115 7.20411 160.989 7.03923C160.531 6.43961 160.248 6.12039 159.467 6.40561C159.287 6.47093 158.765 7.80512 158.436 7.88409C158.008 7.98432 158.168 7.50617 157.72 7.62329C157.681 7.63288 157.69 7.92751 157.413 7.9154C156.126 7.86305 154.718 7.69609 153.373 7.73007C153.189 7.73358 153.426 8.20018 153.161 8.21295C151.908 8.27251 150.563 8.25983 149.356 8.0454C149.06 7.99115 149.244 7.66323 149.18 7.5663C148.782 6.9798 148.225 7.8361 148.132 7.85272C145.925 8.27146 144.226 7.50516 141.966 7.8833C141.844 7.90545 140.907 8.82549 140.483 8.04211C140.454 7.98999 140.034 7.18843 139.669 7.73961C139.646 7.77409 139.907 8.1865 139.455 8.14654C139.002 8.10668 138.275 8.38658 137.65 7.93533C137.452 7.79318 136.982 6.99408 136.397 7.63624C136.359 7.68104 135.459 9.13081 135.129 8.1359C135.076 7.97213 135.125 6.91694 134.425 7.46188C134.292 7.56752 134.537 7.80137 134.184 7.95038C133.643 8.18002 132.923 7.90189 132.26 8.37604C132.144 8.45997 131.655 9.17909 131.256 8.63831C131.193 8.55361 131.309 8.20068 131.099 8.16266C130.103 7.98023 129.064 8.22311 128.052 7.98699C127.693 7.90405 127.872 7.33338 127.498 7.18365C127.124 7.03396 126.371 6.89312 125.983 7.15643C125.594 7.41985 126.028 8.3237 125.444 8.40107C122.908 8.73723 120.38 8.22852 117.841 8.17791C117.465 8.17035 117.78 8.49161 117.226 8.50383C115.18 8.54983 111.668 8.89816 109.873 8.23395C108.441 7.70159 110.228 7.25552 109.136 7.04616C108.609 6.94642 108.057 8.00961 107.931 8.04471C106.7 8.40051 105.835 7.9468 104.729 8.10837C104.5 8.14189 104.732 8.56568 104.538 8.5895C103.874 8.67466 103.172 8.4958 102.539 8.54188C102.252 8.56361 102.31 8.88917 102.045 8.8687C101.41 8.82352 100.848 8.69658 100.225 8.40222C100.169 8.3754 100.54 7.96208 100.072 7.95583C99.3141 7.94689 98.3697 7.66344 97.5085 7.99297C97.253 8.09204 97.2583 8.83836 96.695 8.33461C96.577 8.22943 96.7056 7.33027 96.0789 8.11811C95.9731 8.249 94.9174 9.31654 94.3746 8.65542C94.2314 8.4814 93.8591 7.75627 93.5543 7.87855C93.5131 7.8979 93.6892 8.29483 93.4355 8.33978C92.5479 8.4911 91.5758 8.47157 90.6492 8.6203C90.4009 8.66084 90.7823 9.06625 90.412 9.11345C89.3938 9.24383 88.1216 9.17164 87.1276 9.06918C86.7611 9.03061 87.004 8.68015 86.9764 8.6435C86.5321 8.04729 86.3028 8.87511 86.1627 8.92695C85.2908 9.23839 84.6116 8.87244 83.8079 8.99871C83.5861 9.03253 83.7558 9.41906 83.7125 9.45528C83.2632 9.81011 83.5866 9.09696 83.2895 9.02848C82.4492 8.8346 81.5239 8.89533 80.6887 8.97276C80.3819 9.00178 80.7422 9.4441 80.4669 9.46492C78.8382 9.59682 77.1541 9.61263 75.5767 9.42143C75.2797 9.38462 75.4523 9.02837 75.3878 8.9509C74.9423 8.40872 74.3515 9.1939 74.2122 9.27197C73.5637 9.62885 73.2895 9.33044 72.7062 9.41169C69.8339 9.81452 66.4281 9.76438 63.7068 9.77741C60.1461 9.79772 57.5975 9.61103 54.1841 9.9184C53.9719 9.93732 54.2165 10.3873 54.0341 10.4096C51.6592 10.6779 49.4602 10.6528 47.074 10.9752C46.8795 11.0008 47.1956 11.4179 46.8849 11.4738C46.2479 11.5915 45.4394 11.6334 44.7889 11.5468C44.4716 11.5054 44.8579 11.0933 44.5391 11.0594C43.7968 10.9797 43.0173 11.016 42.2868 11.1526C41.9762 11.2117 42.489 11.6181 42.0828 11.66C39.345 11.9519 36.4333 12.3238 33.6528 12.0571C33.4569 12.0394 33.2017 11.1463 32.7861 11.3722C32.7837 11.6285 32.8205 11.9254 32.8384 12.197C28.6967 12.8345 24.6391 13.0836 20.7195 13.7322C20.5575 13.7591 20.9217 14.1871 20.6096 14.2417C18.6568 14.5859 16.8457 15.0876 14.9599 15.024C14.7623 15.0213 14.6619 14.1666 14.1105 14.429C14.0107 14.4757 13.177 14.795 13.0089 15.0297C12.9866 15.0642 13.2353 15.4126 12.97 15.4915C11.4282 15.9451 9.93424 16.2718 8.314 16.5554C8.06427 16.597 8.18154 16.1096 8.00178 16.1362C6.7368 16.3258 5.63373 17.0926 4.37873 17.2456C3.57071 17.337 3.51543 16.5537 2.8186 16.0918C2.71786 16.0269 2.28719 16.2323 2.06845 15.8741C1.50947 14.9743 1.18925 13.8342 0.570371 12.8873C0.434101 12.6824 -0.089254 13.2674 0.0134917 12.5423C0.0196765 12.4927 0.412938 12.0629 0.448903 11.8229C0.473197 11.6561 0.1207 11.3559 0.220973 11.1075C0.323947 10.8584 0.681827 11.0802 0.900256 10.7471C1.12243 10.4117 0.773553 10.0333 1.39807 9.6895ZM167.821 5.52184C167.344 5.11521 167.279 6.61092 167.792 6.25131C167.817 6.23216 167.845 5.54178 167.821 5.52184ZM225.611 4.42881C224.961 3.79516 224.567 4.781 225.031 5.27253C225.495 5.76337 225.809 4.6208 225.611 4.42881ZM232.07 3.63936C231.312 3.15998 231.308 5.28382 232.072 4.81293C232.116 4.78623 232.114 3.66716 232.07 3.63936ZM4.60342 15.0508C4.58863 15.0348 4.22182 15.1693 4.22217 15.1911C4.22196 15.7072 4.94349 15.4426 4.60342 15.0508ZM238.459 2.69864C238.213 2.42996 237.581 2.8087 237.891 3.14349C238.142 3.41291 238.767 3.03296 238.459 2.69864ZM142.921 4.01188C142.914 3.98962 142.636 3.97077 142.642 4.09671C142.663 4.50234 143.048 4.38616 142.921 4.01188ZM249.317 1.49642C247.759 1.65369 246.529 0.044326 248.28 0.000245373C248.594 -0.0087719 247.694 0.648642 248.11 0.748653C248.877 0.929245 249.168 -0.228221 249.939 0.241408C250.085 0.327298 249.413 1.49138 249.315 1.49925C249.316 1.49831 249.317 1.49736 249.317 1.49642ZM167.54 3.72656C167.531 3.70682 167.149 3.6894 167.14 3.70903C166.935 4.18452 167.704 4.21989 167.54 3.72656ZM126.779 3.18212C126.757 3.14012 125.868 3.10776 125.84 3.14684C125.383 3.92688 127.179 3.99459 126.779 3.18212ZM193.323 2.47948C193.737 1.99776 194.235 1.93644 194.573 2.53271C194.159 2.50519 193.742 2.50474 193.323 2.47948Z" fill="#EAB308"/>
</svg>
