<svg width="64" height="64" viewBox="0 0 64 64" fill="none" xmlns="http://www.w3.org/2000/svg">
<rect x="0.5" y="0.5" width="63" height="63" rx="31.5" fill="#F0FDF4"/>
<rect x="0.5" y="0.5" width="63" height="63" rx="31.5" stroke="#16A34A"/>
<path d="M41.5306 27.2806L29.5306 39.2806C29.4609 39.3503 29.3782 39.4056 29.2871 39.4433C29.1961 39.4811 29.0985 39.5005 28.9999 39.5005C28.9014 39.5005 28.8038 39.4811 28.7127 39.4433C28.6217 39.4056 28.539 39.3503 28.4693 39.2806L23.2193 34.0306C23.0786 33.8898 22.9995 33.699 22.9995 33.4999C22.9995 33.3009 23.0786 33.11 23.2193 32.9693C23.36 32.8286 23.5509 32.7495 23.7499 32.7495C23.949 32.7495 24.1398 32.8286 24.2806 32.9693L28.9999 37.6896L40.4693 26.2193C40.61 26.0786 40.8009 25.9995 40.9999 25.9995C41.199 25.9995 41.3898 26.0786 41.5306 26.2193C41.6713 26.36 41.7503 26.5509 41.7503 26.7499C41.7503 26.949 41.6713 27.1398 41.5306 27.2806Z" fill="#16A34A"/>
</svg>
