<svg width="60" height="60" viewBox="0 0 60 60" fill="none" xmlns="http://www.w3.org/2000/svg">
<rect width="60" height="60" rx="12" fill="#E5E9FF"/>
<path d="M45 32.5V42.5C45 42.8315 44.8683 43.1495 44.6339 43.3839C44.3995 43.6183 44.0815 43.75 43.75 43.75H16.25C15.9185 43.75 15.6005 43.6183 15.3661 43.3839C15.1317 43.1495 15 42.8315 15 42.5V32.5C15 32.1685 15.1317 31.8505 15.3661 31.6161C15.6005 31.3817 15.9185 31.25 16.25 31.25C16.5815 31.25 16.8995 31.3817 17.1339 31.6161C17.3683 31.8505 17.5 32.1685 17.5 32.5V41.25H42.5V32.5C42.5 32.1685 42.6317 31.8505 42.8661 31.6161C43.1005 31.3817 43.4185 31.25 43.75 31.25C44.0815 31.25 44.3995 31.3817 44.6339 31.6161C44.8683 31.8505 45 32.1685 45 32.5ZM24.6344 22.1344L28.75 18.0172V32.5C28.75 32.8315 28.8817 33.1495 29.1161 33.3839C29.3505 33.6183 29.6685 33.75 30 33.75C30.3315 33.75 30.6495 33.6183 30.8839 33.3839C31.1183 33.1495 31.25 32.8315 31.25 32.5V18.0172L35.3656 22.1344C35.6002 22.3689 35.9183 22.5007 36.25 22.5007C36.5817 22.5007 36.8998 22.3689 37.1344 22.1344C37.3689 21.8998 37.5007 21.5817 37.5007 21.25C37.5007 20.9183 37.3689 20.6002 37.1344 20.3656L30.8844 14.1156C30.7683 13.9994 30.6304 13.9072 30.4787 13.8443C30.3269 13.7814 30.1643 13.749 30 13.749C29.8357 13.749 29.6731 13.7814 29.5213 13.8443C29.3696 13.9072 29.2317 13.9994 29.1156 14.1156L22.8656 20.3656C22.6311 20.6002 22.4993 20.9183 22.4993 21.25C22.4993 21.5817 22.6311 21.8998 22.8656 22.1344C23.1002 22.3689 23.4183 22.5007 23.75 22.5007C24.0817 22.5007 24.3998 22.3689 24.6344 22.1344Z" fill="#1007FA"/>
</svg>
