<svg width="43" height="43" viewBox="0 0 43 43" fill="none" xmlns="http://www.w3.org/2000/svg">
<circle cx="21.3386" cy="21.3386" r="21.3386" fill="#181670"/>
<path d="M14.7167 12.7518H24.0848C25.1743 12.7518 26.0255 12.9839 26.6366 13.4061C27.2304 13.8164 27.672 14.457 27.8661 15.4363L27.868 15.449L27.871 15.4607C27.9503 15.8043 27.9891 16.1898 27.9891 16.6463V22.1414C27.9891 23.6318 27.5674 24.565 26.954 25.1346C26.3299 25.714 25.3809 26.0349 24.0956 26.035H14.7167C14.2828 26.0349 13.8847 25.9962 13.5272 25.9158L13.5028 25.9109L13.4774 25.907L13.3251 25.8777C13.1719 25.844 13.0183 25.797 12.8671 25.742C12.219 25.4987 11.7274 25.1104 11.3885 24.5613C11.0433 24.0017 10.8222 23.2189 10.8221 22.1414V16.6463C10.8222 15.1558 11.2449 14.2227 11.8583 13.6531C12.4824 13.0737 13.4313 12.7518 14.7167 12.7518ZM19.4003 15.782C17.4008 15.7822 15.7841 17.3997 15.7841 19.3992C15.7841 21.3987 17.4008 23.0162 19.4003 23.0164C21.3999 23.0164 23.0174 21.3988 23.0175 19.3992C23.0175 17.3996 21.3999 15.782 19.4003 15.782ZM13.2977 16.198C12.4184 16.1981 11.6972 16.9193 11.6971 17.7986V20.9998C11.6973 21.879 12.4185 22.6003 13.2977 22.6004C14.177 22.6004 14.8982 21.879 14.8983 20.9998V17.7986C14.8983 16.9193 14.1771 16.198 13.2977 16.198ZM25.493 16.198C24.6137 16.198 23.8925 16.9193 23.8925 17.7986V20.9998C23.8926 21.879 24.6138 22.6004 25.493 22.6004C26.3722 22.6003 27.0935 21.879 27.0936 20.9998V17.7986C27.0936 16.9194 26.3723 16.1982 25.493 16.198Z" fill="white" stroke="white" stroke-width="1.60039"/>
<path d="M31.1781 19.4615C31.1848 19.586 31.1888 19.7149 31.1888 19.8482V25.3423C31.1888 26.8328 30.7669 27.769 30.1517 28.3414C29.526 28.9235 28.5739 29.2476 27.2836 29.2476H17.9164C17.79 29.2476 17.667 29.2433 17.5472 29.2369H24.0834C26.2157 29.2368 28.0124 28.6002 29.2767 27.3375C30.5411 26.0747 31.178 24.2804 31.1781 22.1529V19.4615Z" fill="white" stroke="white" stroke-width="1.60039"/>
</svg>
