<svg width="43" height="43" viewBox="0 0 43 43" fill="none" xmlns="http://www.w3.org/2000/svg">
<circle cx="21.3386" cy="21.3386" r="21.3386" fill="#3BDC54"/>
<path d="M31.67 19.6663C32.1075 19.6663 32.4702 19.3035 32.4702 18.8661V17.7992C32.4702 13.094 31.0405 11.6643 26.3354 11.6643H19.6671V14.0649C19.6671 14.5024 19.3043 14.8651 18.8669 14.8651C18.4294 14.8651 18.0667 14.5024 18.0667 14.0649V11.6643H15.6661C10.9609 11.6643 9.53125 13.094 9.53125 17.7992V18.3326C9.53125 18.7701 9.89401 19.1328 10.3314 19.1328C11.3557 19.1328 12.1986 19.9757 12.1986 21C12.1986 22.0242 11.3557 22.8671 10.3314 22.8671C9.89401 22.8671 9.53125 23.2298 9.53125 23.6673V24.2008C9.53125 28.9059 10.9609 30.3356 15.6661 30.3356H18.0667V27.935C18.0667 27.4976 18.4294 27.1348 18.8669 27.1348C19.3043 27.1348 19.6671 27.4976 19.6671 27.935V30.3356H26.3354C31.0405 30.3356 32.4702 28.9059 32.4702 24.2008C32.4702 23.7633 32.1075 23.4006 31.67 23.4006C30.6458 23.4006 29.8029 22.5577 29.8029 21.5334C29.8029 20.5092 30.6458 19.6663 31.67 19.6663ZM19.6671 23.3152C19.6671 23.7526 19.3043 24.1154 18.8669 24.1154C18.4294 24.1154 18.0667 23.7526 18.0667 23.3152V18.6847C18.0667 18.2473 18.4294 17.8845 18.8669 17.8845C19.3043 17.8845 19.6671 18.2473 19.6671 18.6847V23.3152Z" fill="white"/>
</svg>
