<svg width="43" height="43" viewBox="0 0 43 43" fill="none" xmlns="http://www.w3.org/2000/svg">
<circle cx="21.3386" cy="21.3386" r="21.3386" fill="#702AC8"/>
<path d="M14.7166 12.7518H24.0848C25.1743 12.7518 26.0254 12.9839 26.6365 13.4061C27.2304 13.8164 27.672 14.457 27.866 15.4363L27.868 15.449L27.8709 15.4607C27.9502 15.8043 27.9891 16.1898 27.9891 16.6463V22.1414C27.989 23.6318 27.5673 24.565 26.9539 25.1346C26.3298 25.714 25.3808 26.0349 24.0955 26.035H14.7166C14.2827 26.0349 13.8847 25.9962 13.5272 25.9158L13.5027 25.9109L13.4774 25.907L13.325 25.8777C13.1718 25.844 13.0183 25.797 12.867 25.742C12.2189 25.4987 11.7273 25.1104 11.3885 24.5613C11.0432 24.0017 10.8221 23.2189 10.8221 22.1414V16.6463C10.8221 15.1558 11.2448 14.2227 11.8582 13.6531C12.4824 13.0737 13.4312 12.7518 14.7166 12.7518ZM19.4002 15.782C17.4007 15.7822 15.784 17.3997 15.784 19.3992C15.7841 21.3987 17.4008 23.0162 19.4002 23.0164C21.3998 23.0164 23.0173 21.3988 23.0174 19.3992C23.0174 17.3996 21.3999 15.782 19.4002 15.782ZM13.2977 16.198C12.4184 16.1981 11.6971 16.9193 11.6971 17.7986V20.9998C11.6972 21.879 12.4184 22.6003 13.2977 22.6004C14.1769 22.6004 14.8981 21.879 14.8983 20.9998V17.7986C14.8982 16.9193 14.177 16.198 13.2977 16.198ZM25.493 16.198C24.6136 16.198 23.8924 16.9193 23.8924 17.7986V20.9998C23.8926 21.879 24.6137 22.6004 25.493 22.6004C26.3722 22.6003 27.0934 21.879 27.0936 20.9998V17.7986C27.0935 16.9194 26.3722 16.1982 25.493 16.198Z" fill="white" stroke="white" stroke-width="1.60039"/>
<path d="M31.178 19.4615C31.1847 19.586 31.1888 19.7149 31.1888 19.8482V25.3423C31.1888 26.8328 30.7669 27.769 30.1517 28.3414C29.526 28.9235 28.5738 29.2476 27.2835 29.2476H17.9163C17.79 29.2476 17.667 29.2433 17.5472 29.2369H24.0833C26.2156 29.2368 28.0124 28.6002 29.2767 27.3375C30.541 26.0747 31.178 24.2804 31.178 22.1529V19.4615Z" fill="white" stroke="white" stroke-width="1.60039"/>
</svg>
