<svg width="48" height="48" viewBox="0 0 48 48" fill="none" xmlns="http://www.w3.org/2000/svg">
<rect width="48" height="48" rx="12" fill="#FFFBEB"/>
<path d="M30.0001 27.8369C31.456 28.5683 32.7042 29.742 33.6153 31.2096C33.7957 31.5003 33.886 31.6456 33.9172 31.8468C33.9805 32.2558 33.7009 32.7585 33.32 32.9204C33.1326 33 32.9218 33 32.5001 33M28.0001 23.5322C29.4818 22.7959 30.5001 21.2669 30.5001 19.5C30.5001 17.7331 29.4818 16.2041 28.0001 15.4678M26.0001 19.5C26.0001 21.9853 23.9854 24 21.5001 24C19.0148 24 17.0001 21.9853 17.0001 19.5C17.0001 17.0147 19.0148 15 21.5001 15C23.9854 15 26.0001 17.0147 26.0001 19.5ZM14.5593 30.9383C16.1536 28.5446 18.6695 27 21.5001 27C24.3307 27 26.8465 28.5446 28.4409 30.9383C28.7901 31.4628 28.9648 31.725 28.9446 32.0599C28.929 32.3207 28.758 32.64 28.5496 32.7976C28.282 33 27.9139 33 27.1777 33H15.8224C15.0863 33 14.7182 33 14.4505 32.7976C14.2421 32.64 14.0712 32.3207 14.0555 32.0599C14.0354 31.725 14.21 31.4628 14.5593 30.9383Z" stroke="#B45309" stroke-width="2" stroke-linecap="round" stroke-linejoin="round"/>
</svg>
