<svg width="48" height="48" viewBox="0 0 48 48" fill="none" xmlns="http://www.w3.org/2000/svg">
<rect width="48" height="48" rx="12" fill="#F0FDF4"/>
<path d="M17.3163 31.4384C17.9246 30.0052 19.3449 29 21 29H27C28.6551 29 30.0754 30.0052 30.6837 31.4384M28 21.5C28 23.7091 26.2091 25.5 24 25.5C21.7909 25.5 20 23.7091 20 21.5C20 19.2909 21.7909 17.5 24 17.5C26.2091 17.5 28 19.2909 28 21.5ZM34 24C34 29.5228 29.5228 34 24 34C18.4772 34 14 29.5228 14 24C14 18.4772 18.4772 14 24 14C29.5228 14 34 18.4772 34 24Z" stroke="#166534" stroke-width="2" stroke-linecap="round" stroke-linejoin="round"/>
</svg>
