<svg width="48" height="48" viewBox="0 0 48 48" fill="none" xmlns="http://www.w3.org/2000/svg">
<rect x="0.5" y="0.5" width="47" height="47" rx="11.5" stroke="#15803D"/>
<path d="M33.6489 31.8751C32.2211 29.4067 30.0208 27.6367 27.4529 26.7976C28.7231 26.0415 29.7099 24.8893 30.2619 23.518C30.8139 22.1468 30.9004 20.6322 30.5083 19.207C30.1162 17.7818 29.2671 16.5247 28.0914 15.6287C26.9156 14.7328 25.4783 14.2476 24.0001 14.2476C22.5219 14.2476 21.0846 14.7328 19.9089 15.6287C18.7332 16.5247 17.8841 17.7818 17.492 19.207C17.0998 20.6322 17.1864 22.1468 17.7384 23.518C18.2903 24.8893 19.2772 26.0415 20.5473 26.7976C17.9795 27.6357 15.7792 29.4057 14.3514 31.8751C14.299 31.9605 14.2643 32.0555 14.2492 32.1545C14.2342 32.2535 14.2391 32.3545 14.2637 32.4516C14.2884 32.5487 14.3322 32.6399 14.3926 32.7197C14.4531 32.7996 14.5289 32.8666 14.6156 32.9167C14.7023 32.9667 14.7982 32.999 14.8976 33.0114C14.997 33.0238 15.0978 33.0163 15.1942 32.9891C15.2906 32.9619 15.3806 32.9157 15.4588 32.8532C15.5371 32.7907 15.602 32.7131 15.6498 32.6251C17.4161 29.5726 20.5379 27.7501 24.0001 27.7501C27.4623 27.7501 30.5842 29.5726 32.3504 32.6251C32.3982 32.7131 32.4632 32.7907 32.5414 32.8532C32.6197 32.9157 32.7097 32.9619 32.806 32.9891C32.9024 33.0163 33.0033 33.0238 33.1027 33.0114C33.2021 32.999 33.2979 32.9667 33.3847 32.9167C33.4714 32.8666 33.5472 32.7996 33.6076 32.7197C33.6681 32.6399 33.7119 32.5487 33.7365 32.4516C33.7611 32.3545 33.7661 32.2535 33.751 32.1545C33.736 32.0555 33.7012 31.9605 33.6489 31.8751ZM18.7501 21.0001C18.7501 19.9618 19.058 18.9467 19.6349 18.0834C20.2118 17.22 21.0317 16.5471 21.991 16.1497C22.9504 15.7524 24.006 15.6484 25.0244 15.851C26.0428 16.0536 26.9782 16.5536 27.7124 17.2878C28.4467 18.022 28.9467 18.9575 29.1493 19.9759C29.3518 20.9943 29.2479 22.0499 28.8505 23.0092C28.4531 23.9685 27.7802 24.7884 26.9169 25.3653C26.0535 25.9422 25.0385 26.2501 24.0001 26.2501C22.6082 26.2486 21.2737 25.695 20.2895 24.7108C19.3052 23.7265 18.7516 22.392 18.7501 21.0001Z" fill="#15803D"/>
</svg>
