<svg width="386" height="147" viewBox="0 0 386 147" fill="none" xmlns="http://www.w3.org/2000/svg">
<g clip-path="url(#clip0_40_740)">
<path d="M53.45 120.027C46.2458 120.027 39.03 120.027 31.8259 120.027C30.4554 120.027 29.9516 119.689 29.9633 118.231C29.9633 94.692 29.9633 71.157 29.9633 47.626C29.9633 46.2612 30.4319 45.8763 31.7556 45.888C46.2107 45.888 60.6581 45.888 75.0976 45.888C76.4915 45.888 76.9952 46.3079 76.9483 47.7309C76.8546 50.7054 76.8663 53.6915 76.9483 56.6776C76.9483 58.0656 76.5383 58.5322 75.1092 58.5206C65.1874 58.5206 55.2657 58.5206 45.3439 58.5206C43.1182 58.5206 43.1182 58.5206 43.1182 60.7718C43.1182 64.971 43.1182 69.1585 43.1182 73.3577C43.1182 74.6292 43.5282 75.0607 44.8167 75.0607C52.4894 75.0607 60.1622 75.0607 67.8466 75.0607C69.838 75.0607 69.8379 75.0607 69.8379 77.102C69.8379 79.9793 69.8379 82.8682 69.8379 85.7687C69.8379 87.6234 69.8379 87.67 67.9637 87.67H45.215C43.1417 87.67 43.1416 87.67 43.1416 89.7813C43.1416 95.1003 43.1416 100.408 43.1416 105.727C43.1416 107.08 43.5868 107.488 44.9222 107.476C54.8908 107.476 64.836 107.476 74.8281 107.476C76.96 107.476 76.9718 107.476 76.9718 109.541C76.9718 112.527 76.9718 115.513 76.9718 118.487C76.9718 119.712 76.5618 120.109 75.3435 120.109C68.0574 120.004 60.7947 120.027 53.45 120.027Z" fill="white"/>
<path d="M301.202 121.136C296.014 121.297 290.849 120.385 286.034 118.455C281.218 116.525 276.858 113.621 273.229 109.926C269.725 106.497 266.95 102.401 265.068 97.8825C263.187 93.3638 262.237 88.5143 262.276 83.6226C262.101 78.2195 263.112 72.8433 265.239 67.8693C267.365 62.8952 270.555 58.4429 274.588 54.8231C281.537 48.3362 290.716 44.7429 300.241 44.78C305.265 44.6236 310.268 45.4721 314.956 47.2752C319.645 49.0784 323.922 51.7997 327.535 55.278C328.484 56.1528 328.648 56.7477 327.687 57.7509C325.579 59.9321 323.576 62.2184 321.608 64.5163C320.788 65.4727 320.237 65.4727 319.382 64.5163C315.608 60.4256 310.514 57.7802 304.986 57.0393C299.35 56.139 293.573 57.1546 288.588 59.9224C283.603 62.6903 279.698 67.0492 277.504 72.2965C275.318 77.2116 274.665 82.6673 275.63 87.9564C276.595 93.2454 279.134 98.1238 282.916 101.959C286.961 105.941 292.223 108.466 297.871 109.136C303.518 109.805 309.229 108.581 314.099 105.657C315.898 104.567 317.589 103.31 319.148 101.901C319.722 101.376 320.108 101.353 320.624 101.982C322.732 104.479 324.853 106.963 327.008 109.413C327.617 110.113 327.687 110.579 326.926 111.244C321.05 116.555 313.701 119.978 305.841 121.066C305.609 121.106 305.374 121.13 305.138 121.136H301.202Z" fill="white"/>
<path d="M251.125 83.0858V118.079C251.125 120.062 251.125 120.074 249.075 120.074H240.242C238.122 120.074 238.122 120.074 238.122 118.009V48.0225C238.122 46.0278 238.122 46.0278 240.172 46.0278C243.163 46.0278 246.158 46.0278 249.157 46.0278C251.113 46.0278 251.125 46.0278 251.125 47.9641V83.0858Z" fill="white"/>
<path d="M263.037 9.41325L260.695 11.7461C250.465 22.1252 240.806 33.0474 231.761 44.4649C213.074 67.2413 198.056 92.7726 187.248 120.144C187.142 120.605 186.882 121.017 186.51 121.31C168.457 79.2057 142.331 41.011 109.595 8.86502L109.853 8.6084C110.696 9.14496 111.551 9.68152 112.383 10.2414C123.031 17.3567 133.129 25.2419 143.472 32.7888C158.045 43.4268 172.277 54.4847 186.381 65.7292C187.177 66.3708 187.552 66.4291 188.372 65.6126C196.972 56.9028 206.128 48.7557 215.783 41.2222C229.336 30.3626 243.897 20.8794 258.551 11.6878C259.898 10.848 261.304 10.0898 262.674 9.2966C262.721 9.35492 262.827 9.40158 263.037 9.41325Z" fill="#4FC9BC"/>
<path d="M160.926 34.0833C160.926 32.217 160.434 30.1874 161.02 28.531C162.554 24.0752 161.711 19.5727 161.922 15.0936C162.039 12.6091 161.851 12.5391 159.579 11.6876C158.806 11.4076 157.517 11.361 157.494 10.5211C157.47 9.68129 158.782 9.66962 159.532 9.35468C167.732 6.33359 175.932 3.35916 184.131 0.338064C185.447 -0.185746 186.91 -0.210664 188.243 0.268062L214.201 9.70462C214.682 9.87959 215.373 9.99622 215.291 10.6028C215.209 11.2093 214.646 11.221 214.213 11.3726C210.347 12.7724 206.482 14.1954 202.593 15.5135C202.34 15.5544 202.097 15.6451 201.879 15.7803C201.662 15.9154 201.473 16.0924 201.325 16.3009C201.177 16.5093 201.072 16.7451 201.016 16.9944C200.96 17.2438 200.954 17.5016 201 17.7531C201 17.9864 201 18.2313 201 18.453C201.562 21.4507 200.016 23.0138 197.38 24.0169C189.59 26.9797 181.882 27.1313 174.21 23.6436C173.349 23.3278 172.619 22.7327 172.139 21.9541C171.659 21.1755 171.456 20.2586 171.562 19.3511C171.691 16.4 171.422 16.1434 168.599 15.1169L165.565 14.0205C164.756 13.7289 164.288 13.9038 164.3 14.8486C164.3 18.348 164.3 21.754 164.3 25.2067C164.288 25.3904 164.32 25.5743 164.393 25.7432C166.607 30.1407 165.237 34.8299 165.565 39.379C165.635 40.2772 165.073 40.7437 164.182 40.7787C163.573 40.7787 163.011 40.7787 162.367 40.7787C162.155 40.7991 161.941 40.771 161.742 40.6964C161.543 40.6219 161.364 40.5029 161.218 40.3487C161.072 40.1944 160.963 40.009 160.901 39.8065C160.838 39.604 160.822 39.39 160.856 39.1807C160.856 37.4544 160.856 35.6814 160.856 34.0017L160.926 34.0833Z" fill="#4FC9BC"/>
<path d="M201.211 28.1111C201.118 30.9005 200.412 33.6356 199.14 36.1229C197.869 38.6102 196.065 40.789 193.854 42.5051C191.617 44.4426 188.726 45.4634 185.763 45.3617C182.8 45.2599 179.986 44.0432 177.888 41.9568C173.378 37.8743 171.527 32.6253 171.434 26.7231C171.434 25.6966 171.867 25.6616 172.605 26.0115C179.54 29.021 186.767 29.0909 194.089 28.0295C195.939 27.7347 197.735 27.1686 199.418 26.3498C201.035 25.6033 201.293 25.7782 201.199 27.6096C201.246 27.8312 201.211 28.0645 201.211 28.1111Z" fill="#4FC9BC"/>
<path d="M150.758 77.1254C149.587 67.7938 145.534 59.9786 137.967 54.1698C130.399 48.3609 121.918 46.2613 112.758 46.0046C105.835 45.8063 98.9003 46.0046 91.9773 46.0046C90.1264 46.0046 90.1148 46.0046 90.1148 47.8943C90.1148 59.5587 90.1148 71.2621 90.1148 83.0043C90.1148 94.7465 90.103 106.465 90.0796 118.161C90.0796 120.004 90.0796 120.016 91.9655 120.016C98.4317 120.016 104.851 120.016 111.352 120.016C117.172 120.041 122.95 119.042 128.42 117.064C137.791 113.565 144.667 107.301 148.427 97.8998C150.984 91.2894 151.787 84.1346 150.758 77.1254ZM136.526 92.6624C134.265 99.1712 129.603 103.16 123.207 105.493C117.116 107.651 110.79 107.43 104.464 107.406C103.293 107.406 103.293 106.601 103.293 105.785V60.3519C103.293 58.5206 103.293 58.5206 105.191 58.5089C110.86 58.5089 116.506 58.4039 122.036 60.037C131.489 62.8248 137.264 70.1734 137.92 79.9715C138.307 84.252 137.833 88.5665 136.526 92.6624Z" fill="white"/>
<path d="M338.991 82.8874V47.894C338.991 45.8994 338.991 45.8994 341.03 45.8994H383.997C385.953 45.8994 385.976 45.8994 385.976 47.8357C385.976 50.7168 385.976 53.6679 385.976 56.5024C385.976 58.4504 385.976 58.4737 384.032 58.4737H354.407C352.17 58.4737 352.17 58.4737 352.17 60.7133C352.17 64.8658 352.17 69.0067 352.17 73.1592C352.17 74.5473 352.568 75.0256 354.009 75.0139C361.682 74.9556 369.354 75.0139 377.027 75.0139C378.878 75.0139 378.889 75.0139 378.901 76.9035V85.5702C378.901 87.6115 378.901 87.6232 376.886 87.6232H354.29C352.205 87.6232 352.193 87.6232 352.193 89.7344C352.193 95.0417 352.193 100.361 352.193 105.668C352.193 107.021 352.638 107.441 353.974 107.429C363.849 107.429 373.724 107.429 383.599 107.429C386.023 107.429 386.023 107.429 386.023 109.914C386.023 112.795 386.023 115.688 386.023 118.581C386.023 119.654 385.648 120.05 384.547 120.05C369.858 120.05 355.161 120.05 340.456 120.05C339.038 120.05 339.027 119.28 339.027 118.266C339.019 106.477 339.007 94.684 338.991 82.8874Z" fill="white"/>
</g>
<defs>
<clipPath id="clip0_40_740">
<rect width="356.037" height="121.415" fill="white" transform="translate(29.9634)"/>
</clipPath>
</defs>
</svg>
