<svg width="22" height="22" viewBox="0 0 22 22" fill="none" xmlns="http://www.w3.org/2000/svg">
<rect width="22" height="22" rx="1" fill="#005055"/>
<path fill-rule="evenodd" clip-rule="evenodd" d="M3.6875 15.5V5.9375C3.6875 5.62684 3.93934 5.375 4.25 5.375H17.75C18.0607 5.375 18.3125 5.62684 18.3125 5.9375V15.5C18.3125 15.5 18.3125 15.966 17.983 16.2955C17.983 16.2955 17.6535 16.625 17.1875 16.625H4.8125C4.8125 16.625 4.34651 16.625 4.01701 16.2955C4.01701 16.2955 3.6875 15.966 3.6875 15.5ZM4.8125 15.5H17.1875V6.5H4.8125V15.5Z" fill="white"/>
<path d="M4.6301 5.52285C4.52635 5.42775 4.39073 5.375 4.25 5.375C4.24185 5.375 4.23371 5.37518 4.22557 5.37553C4.07652 5.38201 3.93616 5.44743 3.83535 5.5574C3.74025 5.66115 3.6875 5.79677 3.6875 5.9375C3.6875 5.94565 3.68768 5.95379 3.68803 5.96193C3.69451 6.11098 3.75993 6.25134 3.8699 6.35215L10.6199 12.5396C10.835 12.7368 11.165 12.7368 11.3801 12.5396L18.1297 6.35249C18.2459 6.24595 18.3125 6.09517 18.3125 5.9375L18.3125 5.93282C18.3113 5.79371 18.2587 5.65996 18.1646 5.5574C18.0638 5.44743 17.9235 5.38201 17.7744 5.37553C17.7663 5.37518 17.7581 5.375 17.75 5.375L17.7474 5.37501C17.6076 5.37565 17.473 5.42836 17.3699 5.52285L11 11.3619L4.6301 5.52285Z" fill="white"/>
</svg>
