<svg width="22" height="22" viewBox="0 0 22 22" fill="none" xmlns="http://www.w3.org/2000/svg">
<rect width="22" height="22" rx="1" fill="#005055"/>
<path d="M11 12C10.5055 12 10.0222 11.8534 9.61108 11.5787C9.19995 11.304 8.87952 10.9135 8.6903 10.4567C8.50108 9.99989 8.45157 9.49723 8.54804 9.01228C8.6445 8.52732 8.8826 8.08187 9.23223 7.73223C9.58187 7.3826 10.0273 7.1445 10.5123 7.04804C10.9972 6.95157 11.4999 7.00108 11.9567 7.1903C12.4135 7.37952 12.804 7.69995 13.0787 8.11108C13.3534 8.5222 13.5 9.00555 13.5 9.5C13.4992 10.1628 13.2356 10.7982 12.7669 11.2669C12.2982 11.7356 11.6628 11.9992 11 12ZM11 8C10.7033 8 10.4133 8.08797 10.1666 8.2528C9.91997 8.41762 9.72771 8.65189 9.61418 8.92598C9.50065 9.20007 9.47095 9.50167 9.52882 9.79264C9.5867 10.0836 9.72956 10.3509 9.93934 10.5607C10.1491 10.7704 10.4164 10.9133 10.7074 10.9712C10.9983 11.0291 11.2999 10.9994 11.574 10.8858C11.8481 10.7723 12.0824 10.58 12.2472 10.3334C12.412 10.0867 12.5 9.79667 12.5 9.5C12.4996 9.1023 12.3414 8.721 12.0602 8.43978C11.779 8.15856 11.3977 8.0004 11 8Z" fill="white"/>
<path d="M11 18L6.782 13.0255C6.72339 12.9508 6.66539 12.8756 6.608 12.8C5.88786 11.8507 5.49866 10.6915 5.5 9.5C5.5 8.04131 6.07947 6.64236 7.11092 5.61091C8.14237 4.57946 9.54131 4 11 4C12.4587 4 13.8576 4.57946 14.8891 5.61091C15.9205 6.64236 16.5 8.04131 16.5 9.5C16.5012 10.691 16.1122 11.8495 15.3925 12.7985L15.392 12.8C15.392 12.8 15.242 12.997 15.2195 13.0235L11 18ZM7.4065 12.1975C7.4065 12.1975 7.523 12.3515 7.5495 12.3845L11 16.454L14.455 12.379C14.477 12.3515 14.594 12.1965 14.5945 12.196C15.1831 11.4206 15.5012 10.4735 15.5 9.5C15.5 8.30653 15.0259 7.16193 14.182 6.31802C13.3381 5.47411 12.1935 5 11 5C9.80653 5 8.66194 5.47411 7.81802 6.31802C6.97411 7.16193 6.5 8.30653 6.5 9.5C6.49877 10.4741 6.81723 11.4218 7.4065 12.1975Z" fill="white"/>
</svg>
