<svg width="88" height="70" viewBox="0 0 88 70" fill="none" xmlns="http://www.w3.org/2000/svg">
<path d="M87.0566 5.37886L85.7274 6.71194C79.9235 12.6428 74.4436 18.8841 69.3117 25.4084C58.7092 38.4234 50.1891 53.0128 44.0567 68.6535C43.9969 68.917 43.8492 69.1522 43.638 69.3201C33.3956 45.2603 18.5729 23.4347 0 5.06558L0.146234 4.91895C0.62475 5.22555 1.10989 5.53216 1.58176 5.8521C7.62302 9.91799 13.3519 14.4238 19.2204 18.7363C27.4881 24.8152 35.563 31.134 43.5649 37.5594C44.0168 37.926 44.2295 37.9593 44.6947 37.4928C49.5738 32.5158 54.7685 27.8603 60.2464 23.5554C67.9359 17.3499 76.197 11.9309 84.5112 6.67861C85.2755 6.1987 86.073 5.76545 86.8506 5.3122C86.8772 5.34553 86.937 5.37219 87.0566 5.37886Z" fill="#4FC9BC"/>
<path d="M29.123 19.4763C29.123 18.4099 28.8439 17.2501 29.1762 16.3036C30.0468 13.7574 29.5683 11.1846 29.6879 8.62505C29.7544 7.20532 29.6481 7.16533 28.3587 6.67875C27.9201 6.51878 27.189 6.49212 27.1757 6.01221C27.1624 5.5323 27.9068 5.52564 28.3321 5.34567C32.9844 3.61933 37.6366 1.91966 42.2888 0.193319C43.0353 -0.106001 43.8653 -0.12024 44.6216 0.153318L59.3493 5.54564C59.6217 5.64562 60.0139 5.71226 59.9673 6.05886C59.9208 6.40547 59.6018 6.41213 59.3559 6.49878C57.1627 7.29863 54.9695 8.11181 52.763 8.865C52.6193 8.88837 52.4817 8.94019 52.3582 9.01743C52.2347 9.09468 52.1278 9.1958 52.0437 9.31492C51.9595 9.43404 51.8999 9.56876 51.8682 9.71124C51.8366 9.85371 51.8335 10.0011 51.8591 10.1448C51.8591 10.2781 51.8591 10.418 51.8591 10.5447C52.1782 12.2577 51.3009 13.1509 49.8055 13.7241C45.3859 15.4171 41.0128 15.5037 36.6596 13.5108C36.1711 13.3303 35.7573 12.9902 35.4849 12.5453C35.2125 12.1004 35.0972 11.5765 35.1576 11.0579C35.2307 9.37157 35.0779 9.22494 33.4762 8.63838L31.7548 8.01183C31.2963 7.8452 31.0304 7.94517 31.0371 8.48507C31.0371 10.4847 31.0371 12.431 31.0371 14.404C31.0304 14.5089 31.0486 14.614 31.0902 14.7106C32.3463 17.2234 31.5688 19.9029 31.7548 22.5024C31.7947 23.0157 31.4757 23.2823 30.9706 23.3023C30.625 23.3023 30.306 23.3023 29.9405 23.3023C29.8203 23.3139 29.6991 23.2978 29.5861 23.2552C29.4731 23.2126 29.3713 23.1447 29.2885 23.0565C29.2058 22.9684 29.1442 22.8624 29.1086 22.7467C29.073 22.631 29.0643 22.5087 29.0831 22.3891C29.0831 21.4026 29.0831 20.3895 29.0831 19.4297L29.123 19.4763Z" fill="#4FC9BC"/>
</svg>
