<svg width="299" height="38" viewBox="0 0 299 38" fill="none" xmlns="http://www.w3.org/2000/svg">
<path d="M0 38.0001V0.0873718H8.00286L27.0573 29.2412V0.0873718H33.1357V38.0001H25.8251L6.13553 8.14755V38.0001H0Z" fill="black"/>
<path d="M47.8074 38.0001H41.6274V0.0873718H47.8074V38.0001Z" fill="black"/>
<path d="M56.3311 38.0001V0.0873718H74.7503C78.5993 0.0873718 81.5888 1.01259 83.7186 2.86302C84.767 3.78227 85.5964 4.92453 86.1459 6.20603C86.6955 7.48753 86.9512 8.87578 86.8944 10.269C86.9388 12.3037 86.3483 14.3018 85.2049 15.9854C84.0625 17.6041 82.4023 18.7848 80.4984 19.3327C81.863 19.5376 83.1612 20.0574 84.2902 20.8507C85.0556 21.4403 85.6121 22.2594 85.8781 23.1881C86.1552 24.2472 86.2856 25.3393 86.2656 26.4338V35.3768C86.2675 35.7884 86.3209 36.198 86.4244 36.5964C86.4656 36.7827 86.5546 36.955 86.6827 37.0964C86.8108 37.2379 86.9735 37.3435 87.1548 37.403V38.0001H80.8033C80.5441 37.6141 80.3589 37.1833 80.2571 36.7297C80.1186 36.0465 80.0589 35.3496 80.0792 34.6528V27.3675C80.0792 25.6017 79.7934 24.287 79.2218 23.4231C78.6501 22.5593 77.4455 22.1359 75.6078 22.1528H62.5174V38.0001H56.3311ZM62.5174 16.9509H73.8992C76.0164 16.9509 77.636 16.447 78.7581 15.4392C79.3378 14.8875 79.7895 14.2154 80.0814 13.4703C80.3733 12.7252 80.4983 11.9251 80.4476 11.1264C80.4476 9.25908 79.876 7.84691 78.7327 6.88993C77.5894 5.93296 75.9952 5.45659 73.95 5.46082H62.5174V16.9509Z" fill="black"/>
<path d="M90.896 38.0001L106.019 0.0873718H113.196L128.313 38.0001H121.764L118.176 28.7966H100.874L97.3173 38.0001H90.896ZM107.683 11.4377L102.951 23.5502H116.149L111.475 11.4377C110.852 9.87942 110.217 8.11367 109.569 6.14044C108.928 8.05227 108.305 9.82437 107.683 11.4123V11.4377Z" fill="black"/>
<path d="M132.835 38.0001V0.0873718H139.015V17.8718L156.583 0.0873718H164.484L149.361 15.0517L165.158 38.0001H157.726L145.15 19.2628L139.015 25.2969V38.0001H132.835Z" fill="black"/>
<path d="M165.278 37.9999L180.401 0.112671H187.572L202.682 37.9999H196.133L192.545 28.7965H175.243L171.629 37.9999H165.278ZM182.065 11.4376L177.346 23.5247H190.544L185.869 11.4122C185.247 9.8539 184.612 8.08816 183.964 6.11493C183.297 8.05216 182.675 9.82426 182.052 11.4122L182.065 11.4376Z" fill="black"/>
<path d="M207.198 38.0001V0.0873718H225.617C229.462 0.0873718 232.449 1.01259 234.579 2.86302C235.627 3.78227 236.457 4.92453 237.006 6.20603C237.556 7.48753 237.812 8.87578 237.755 10.269C237.802 12.3041 237.211 14.303 236.065 15.9854C234.926 17.604 233.267 18.7849 231.365 19.3327C232.725 19.5395 234.019 20.0592 235.144 20.8507C235.908 21.4406 236.462 22.2599 236.726 23.1881C237.005 24.2469 237.138 25.339 237.12 26.4338V35.3768C237.119 35.7881 237.171 36.1978 237.272 36.5964C237.315 36.7819 237.405 36.9534 237.532 37.0946C237.66 37.2357 237.822 37.3419 238.002 37.403V38.0001H231.651C231.392 37.6141 231.207 37.1833 231.105 36.7297C230.964 36.0468 230.902 35.3499 230.921 34.6528V27.3675C230.921 25.6017 230.635 24.287 230.063 23.4231C229.491 22.553 228.291 22.1528 226.449 22.1528H213.384V38.0001H207.198ZM213.378 16.9509H224.76C226.877 16.9509 228.496 16.447 229.618 15.4392C230.207 14.8878 230.666 14.2128 230.963 13.4626C231.259 12.7125 231.386 11.9059 231.333 11.101C231.333 9.23367 230.762 7.8215 229.618 6.86453C228.475 5.90755 226.883 5.43118 224.842 5.43542H213.41L213.378 16.9509Z" fill="black"/>
<path d="M241.762 37.9999L256.885 0.112671H264.056L279.179 37.9999H272.618L269.035 28.7965H251.74L248.152 37.9999H241.762ZM258.549 11.4376L253.817 23.5247H267.022L262.341 11.4122C261.719 9.8539 261.083 8.08816 260.436 6.11493C259.794 8.05216 259.172 9.82426 258.549 11.4122V11.4376Z" fill="black"/>
<path d="M283.026 1.48596V0H289.023V1.48596H286.826V6.99685H285.131V1.48596H283.026ZM293.57 6.99685L291.668 1.70512V6.99685H290.065V0H292.522L294.114 4.46056L295.696 0H298.184V6.99685H296.556V1.70512L294.633 6.99685H293.57Z" fill="black"/>
</svg>

