<svg width="22" height="22" viewBox="0 0 22 22" fill="none" xmlns="http://www.w3.org/2000/svg">
<rect width="22" height="22" rx="2" fill="#005055"/>
<path fill-rule="evenodd" clip-rule="evenodd" d="M10.1833 8.74976L9.0113 10.5323C9.0113 10.5323 9.8197 12.1999 11.4868 13.0019L11.4891 13.0003L13.2436 11.8283C13.2436 11.8283 13.4819 11.6667 13.7686 11.6403C13.7686 11.6403 14.0553 11.6139 14.3157 11.7278L17.6005 13.1386C17.6005 13.1386 17.9495 13.2839 18.1387 13.6111C18.1387 13.6111 18.3279 13.9383 18.2798 14.313C18.2798 14.313 18.091 15.7866 16.9759 16.7682C16.9759 16.7682 15.8607 17.7498 14.375 17.7501C14.375 17.7501 12.361 17.7501 10.5003 16.9794C10.5003 16.9794 8.63965 16.2087 7.21554 14.7846C7.21554 14.7846 5.79144 13.3605 5.02072 11.4998C5.02072 11.4998 4.25 9.6391 4.25 7.62499C4.25 7.62499 4.25034 6.13937 5.23194 5.02423C5.23194 5.02423 6.21354 3.9091 7.68693 3.72032C7.68693 3.72032 8.06184 3.67216 8.38905 3.8614C8.38905 3.8614 8.71626 4.05062 8.85921 4.39416L10.2714 7.68931C10.2714 7.68931 10.3834 7.94707 10.3609 8.22719C10.3609 8.22719 10.3385 8.50732 10.1833 8.74976ZM7.99652 11.0179L7.99562 11.0161C7.99562 11.0161 7.86989 10.7522 7.8886 10.4603C7.8886 10.4603 7.90737 10.1674 8.06683 9.92106L9.23951 8.13743L7.82517 4.83732C7.82517 4.83732 6.77576 4.97303 6.07638 5.76756C6.07638 5.76756 5.37524 6.56408 5.375 7.62524C5.375 7.62524 5.375 9.41533 6.06008 11.0693C6.06008 11.0693 6.74517 12.7232 8.01104 13.9891C8.01104 13.9891 9.27691 15.2549 10.9308 15.94C10.9308 15.94 12.5848 16.6251 14.375 16.6251C14.375 16.6251 15.436 16.6249 16.2326 15.9237C16.2326 15.9237 17.0272 15.2243 17.1633 14.1751L13.8719 12.7615L12.114 13.9358C12.114 13.9358 11.8692 14.1011 11.572 14.1237C11.572 14.1237 11.2748 14.1462 11.0054 14.0187C11.0054 14.0187 8.97709 13.0429 7.99764 11.0203L7.99722 11.0194L7.99696 11.0189L7.99652 11.0179Z" fill="white"/>
</svg>
